<svg width="1363" height="163" viewBox="0 0 1363 163" fill="none" xmlns="http://www.w3.org/2000/svg">
<path d="M0 15C0 6.71573 6.71573 0 15 0H37V163H15C6.71573 163 0 156.284 0 148V15Z" fill="#424242"/>
<rect width="1097" height="163" transform="translate(37)" fill="#F0F0F0"/>
<path d="M101.906 53.9219L94.3945 51.2383V48.0859L104.602 52.375V54.6367L101.906 53.9219ZM94.3945 56.1719L101.918 53.4297L104.602 52.7852V55.0352L94.3945 59.3242V56.1719ZM119.438 53.0195H115.113L115.09 51.2031H119.016C119.664 51.2031 120.23 51.0938 120.715 50.875C121.199 50.6562 121.574 50.3438 121.84 49.9375C122.113 49.5234 122.25 49.0312 122.25 48.4609C122.25 47.8359 122.129 47.3281 121.887 46.9375C121.652 46.5391 121.289 46.25 120.797 46.0703C120.312 45.8828 119.695 45.7891 118.945 45.7891H115.617V61H113.355V43.9375H118.945C119.82 43.9375 120.602 44.0273 121.289 44.207C121.977 44.3789 122.559 44.6523 123.035 45.0273C123.52 45.3945 123.887 45.8633 124.137 46.4336C124.387 47.0039 124.512 47.6875 124.512 48.4844C124.512 49.1875 124.332 49.8242 123.973 50.3945C123.613 50.957 123.113 51.418 122.473 51.7773C121.84 52.1367 121.098 52.3672 120.246 52.4688L119.438 53.0195ZM119.332 61H114.223L115.5 59.1602H119.332C120.051 59.1602 120.66 59.0352 121.16 58.7852C121.668 58.5352 122.055 58.1836 122.32 57.7305C122.586 57.2695 122.719 56.7266 122.719 56.1016C122.719 55.4688 122.605 54.9219 122.379 54.4609C122.152 54 121.797 53.6445 121.312 53.3945C120.828 53.1445 120.203 53.0195 119.438 53.0195H116.215L116.238 51.2031H120.645L121.125 51.8594C121.945 51.9297 122.641 52.1641 123.211 52.5625C123.781 52.9531 124.215 53.4531 124.512 54.0625C124.816 54.6719 124.969 55.3438 124.969 56.0781C124.969 57.1406 124.734 58.0391 124.266 58.7734C123.805 59.5 123.152 60.0547 122.309 60.4375C121.465 60.8125 120.473 61 119.332 61ZM131.543 59.6875L135.07 48.3203H137.391L132.305 62.957C132.188 63.2695 132.031 63.6055 131.836 63.9648C131.648 64.332 131.406 64.6797 131.109 65.0078C130.812 65.3359 130.453 65.6016 130.031 65.8047C129.617 66.0156 129.121 66.1211 128.543 66.1211C128.371 66.1211 128.152 66.0977 127.887 66.0508C127.621 66.0039 127.434 65.9648 127.324 65.9336L127.312 64.1758C127.375 64.1836 127.473 64.1914 127.605 64.1992C127.746 64.2148 127.844 64.2227 127.898 64.2227C128.391 64.2227 128.809 64.1562 129.152 64.0234C129.496 63.8984 129.785 63.6836 130.02 63.3789C130.262 63.082 130.469 62.6719 130.641 62.1484L131.543 59.6875ZM128.953 48.3203L132.246 58.1641L132.809 60.4492L131.25 61.2461L126.586 48.3203H128.953ZM144.656 48.3203V49.9844H137.801V48.3203H144.656ZM140.121 45.2383H142.289V57.8594C142.289 58.2891 142.355 58.6133 142.488 58.832C142.621 59.0508 142.793 59.1953 143.004 59.2656C143.215 59.3359 143.441 59.3711 143.684 59.3711C143.863 59.3711 144.051 59.3555 144.246 59.3242C144.449 59.2852 144.602 59.2539 144.703 59.2305L144.715 61C144.543 61.0547 144.316 61.1055 144.035 61.1523C143.762 61.207 143.43 61.2344 143.039 61.2344C142.508 61.2344 142.02 61.1289 141.574 60.918C141.129 60.707 140.773 60.3555 140.508 59.8633C140.25 59.3633 140.121 58.6914 140.121 57.8477V45.2383ZM152.461 61.2344C151.578 61.2344 150.777 61.0859 150.059 60.7891C149.348 60.4844 148.734 60.0586 148.219 59.5117C147.711 58.9648 147.32 58.3164 147.047 57.5664C146.773 56.8164 146.637 55.9961 146.637 55.1055V54.6133C146.637 53.582 146.789 52.6641 147.094 51.8594C147.398 51.0469 147.812 50.3594 148.336 49.7969C148.859 49.2344 149.453 48.8086 150.117 48.5195C150.781 48.2305 151.469 48.0859 152.18 48.0859C153.086 48.0859 153.867 48.2422 154.523 48.5547C155.188 48.8672 155.73 49.3047 156.152 49.8672C156.574 50.4219 156.887 51.0781 157.09 51.8359C157.293 52.5859 157.395 53.4062 157.395 54.2969V55.2695H147.926V53.5H155.227V53.3359C155.195 52.7734 155.078 52.2266 154.875 51.6953C154.68 51.1641 154.367 50.7266 153.938 50.3828C153.508 50.0391 152.922 49.8672 152.18 49.8672C151.688 49.8672 151.234 49.9727 150.82 50.1836C150.406 50.3867 150.051 50.6914 149.754 51.0977C149.457 51.5039 149.227 52 149.062 52.5859C148.898 53.1719 148.816 53.8477 148.816 54.6133V55.1055C148.816 55.707 148.898 56.2734 149.062 56.8047C149.234 57.3281 149.48 57.7891 149.801 58.1875C150.129 58.5859 150.523 58.8984 150.984 59.125C151.453 59.3516 151.984 59.4648 152.578 59.4648C153.344 59.4648 153.992 59.3086 154.523 58.9961C155.055 58.6836 155.52 58.2656 155.918 57.7422L157.23 58.7852C156.957 59.1992 156.609 59.5938 156.188 59.9688C155.766 60.3438 155.246 60.6484 154.629 60.8828C154.02 61.1172 153.297 61.2344 152.461 61.2344ZM166.336 53.0195H162.012L161.988 51.2031H165.914C166.562 51.2031 167.129 51.0938 167.613 50.875C168.098 50.6562 168.473 50.3438 168.738 49.9375C169.012 49.5234 169.148 49.0312 169.148 48.4609C169.148 47.8359 169.027 47.3281 168.785 46.9375C168.551 46.5391 168.188 46.25 167.695 46.0703C167.211 45.8828 166.594 45.7891 165.844 45.7891H162.516V61H160.254V43.9375H165.844C166.719 43.9375 167.5 44.0273 168.188 44.207C168.875 44.3789 169.457 44.6523 169.934 45.0273C170.418 45.3945 170.785 45.8633 171.035 46.4336C171.285 47.0039 171.41 47.6875 171.41 48.4844C171.41 49.1875 171.23 49.8242 170.871 50.3945C170.512 50.957 170.012 51.418 169.371 51.7773C168.738 52.1367 167.996 52.3672 167.145 52.4688L166.336 53.0195ZM166.23 61H161.121L162.398 59.1602H166.23C166.949 59.1602 167.559 59.0352 168.059 58.7852C168.566 58.5352 168.953 58.1836 169.219 57.7305C169.484 57.2695 169.617 56.7266 169.617 56.1016C169.617 55.4688 169.504 54.9219 169.277 54.4609C169.051 54 168.695 53.6445 168.211 53.3945C167.727 53.1445 167.102 53.0195 166.336 53.0195H163.113L163.137 51.2031H167.543L168.023 51.8594C168.844 51.9297 169.539 52.1641 170.109 52.5625C170.68 52.9531 171.113 53.4531 171.41 54.0625C171.715 54.6719 171.867 55.3438 171.867 56.0781C171.867 57.1406 171.633 58.0391 171.164 58.7734C170.703 59.5 170.051 60.0547 169.207 60.4375C168.363 60.8125 167.371 61 166.23 61ZM182.355 58.832V52.3047C182.355 51.8047 182.254 51.3711 182.051 51.0039C181.855 50.6289 181.559 50.3398 181.16 50.1367C180.762 49.9336 180.27 49.832 179.684 49.832C179.137 49.832 178.656 49.9258 178.242 50.1133C177.836 50.3008 177.516 50.5469 177.281 50.8516C177.055 51.1562 176.941 51.4844 176.941 51.8359H174.773C174.773 51.3828 174.891 50.9336 175.125 50.4883C175.359 50.043 175.695 49.6406 176.133 49.2812C176.578 48.9141 177.109 48.625 177.727 48.4141C178.352 48.1953 179.047 48.0859 179.812 48.0859C180.734 48.0859 181.547 48.2422 182.25 48.5547C182.961 48.8672 183.516 49.3398 183.914 49.9727C184.32 50.5977 184.523 51.3828 184.523 52.3281V58.2344C184.523 58.6562 184.559 59.1055 184.629 59.582C184.707 60.0586 184.82 60.4688 184.969 60.8125V61H182.707C182.598 60.75 182.512 60.418 182.449 60.0039C182.387 59.582 182.355 59.1914 182.355 58.832ZM182.73 53.3125L182.754 54.8359H180.562C179.945 54.8359 179.395 54.8867 178.91 54.9883C178.426 55.082 178.02 55.2266 177.691 55.4219C177.363 55.6172 177.113 55.8633 176.941 56.1602C176.77 56.4492 176.684 56.7891 176.684 57.1797C176.684 57.5781 176.773 57.9414 176.953 58.2695C177.133 58.5977 177.402 58.8594 177.762 59.0547C178.129 59.2422 178.578 59.3359 179.109 59.3359C179.773 59.3359 180.359 59.1953 180.867 58.9141C181.375 58.6328 181.777 58.2891 182.074 57.8828C182.379 57.4766 182.543 57.082 182.566 56.6992L183.492 57.7422C183.438 58.0703 183.289 58.4336 183.047 58.832C182.805 59.2305 182.48 59.6133 182.074 59.9805C181.676 60.3398 181.199 60.6406 180.645 60.8828C180.098 61.1172 179.48 61.2344 178.793 61.2344C177.934 61.2344 177.18 61.0664 176.531 60.7305C175.891 60.3945 175.391 59.9453 175.031 59.3828C174.68 58.8125 174.504 58.1758 174.504 57.4727C174.504 56.793 174.637 56.1953 174.902 55.6797C175.168 55.1562 175.551 54.7227 176.051 54.3789C176.551 54.0273 177.152 53.7617 177.855 53.582C178.559 53.4023 179.344 53.3125 180.211 53.3125H182.73ZM193.242 48.3203V49.9844H186.387V48.3203H193.242ZM188.707 45.2383H190.875V57.8594C190.875 58.2891 190.941 58.6133 191.074 58.832C191.207 59.0508 191.379 59.1953 191.59 59.2656C191.801 59.3359 192.027 59.3711 192.27 59.3711C192.449 59.3711 192.637 59.3555 192.832 59.3242C193.035 59.2852 193.188 59.2539 193.289 59.2305L193.301 61C193.129 61.0547 192.902 61.1055 192.621 61.1523C192.348 61.207 192.016 61.2344 191.625 61.2344C191.094 61.2344 190.605 61.1289 190.16 60.918C189.715 60.707 189.359 60.3555 189.094 59.8633C188.836 59.3633 188.707 58.6914 188.707 57.8477V45.2383ZM201.094 48.3203V49.9844H194.238V48.3203H201.094ZM196.559 45.2383H198.727V57.8594C198.727 58.2891 198.793 58.6133 198.926 58.832C199.059 59.0508 199.23 59.1953 199.441 59.2656C199.652 59.3359 199.879 59.3711 200.121 59.3711C200.301 59.3711 200.488 59.3555 200.684 59.3242C200.887 59.2852 201.039 59.2539 201.141 59.2305L201.152 61C200.98 61.0547 200.754 61.1055 200.473 61.1523C200.199 61.207 199.867 61.2344 199.477 61.2344C198.945 61.2344 198.457 61.1289 198.012 60.918C197.566 60.707 197.211 60.3555 196.945 59.8633C196.688 59.3633 196.559 58.6914 196.559 57.8477V45.2383ZM205.992 43V61H203.812V43H205.992ZM214.734 61.2344C213.852 61.2344 213.051 61.0859 212.332 60.7891C211.621 60.4844 211.008 60.0586 210.492 59.5117C209.984 58.9648 209.594 58.3164 209.32 57.5664C209.047 56.8164 208.91 55.9961 208.91 55.1055V54.6133C208.91 53.582 209.062 52.6641 209.367 51.8594C209.672 51.0469 210.086 50.3594 210.609 49.7969C211.133 49.2344 211.727 48.8086 212.391 48.5195C213.055 48.2305 213.742 48.0859 214.453 48.0859C215.359 48.0859 216.141 48.2422 216.797 48.5547C217.461 48.8672 218.004 49.3047 218.426 49.8672C218.848 50.4219 219.16 51.0781 219.363 51.8359C219.566 52.5859 219.668 53.4062 219.668 54.2969V55.2695H210.199V53.5H217.5V53.3359C217.469 52.7734 217.352 52.2266 217.148 51.6953C216.953 51.1641 216.641 50.7266 216.211 50.3828C215.781 50.0391 215.195 49.8672 214.453 49.8672C213.961 49.8672 213.508 49.9727 213.094 50.1836C212.68 50.3867 212.324 50.6914 212.027 51.0977C211.73 51.5039 211.5 52 211.336 52.5859C211.172 53.1719 211.09 53.8477 211.09 54.6133V55.1055C211.09 55.707 211.172 56.2734 211.336 56.8047C211.508 57.3281 211.754 57.7891 212.074 58.1875C212.402 58.5859 212.797 58.8984 213.258 59.125C213.727 59.3516 214.258 59.4648 214.852 59.4648C215.617 59.4648 216.266 59.3086 216.797 58.9961C217.328 58.6836 217.793 58.2656 218.191 57.7422L219.504 58.7852C219.23 59.1992 218.883 59.5938 218.461 59.9688C218.039 60.3438 217.52 60.6484 216.902 60.8828C216.293 61.1172 215.57 61.2344 214.734 61.2344ZM229.582 57.6367C229.582 57.3242 229.512 57.0352 229.371 56.7695C229.238 56.4961 228.961 56.25 228.539 56.0312C228.125 55.8047 227.5 55.6094 226.664 55.4453C225.961 55.2969 225.324 55.1211 224.754 54.918C224.191 54.7148 223.711 54.4688 223.312 54.1797C222.922 53.8906 222.621 53.5508 222.41 53.1602C222.199 52.7695 222.094 52.3125 222.094 51.7891C222.094 51.2891 222.203 50.8164 222.422 50.3711C222.648 49.9258 222.965 49.5312 223.371 49.1875C223.785 48.8438 224.281 48.5742 224.859 48.3789C225.438 48.1836 226.082 48.0859 226.793 48.0859C227.809 48.0859 228.676 48.2656 229.395 48.625C230.113 48.9844 230.664 49.4648 231.047 50.0664C231.43 50.6602 231.621 51.3203 231.621 52.0469H229.453C229.453 51.6953 229.348 51.3555 229.137 51.0273C228.934 50.6914 228.633 50.4141 228.234 50.1953C227.844 49.9766 227.363 49.8672 226.793 49.8672C226.191 49.8672 225.703 49.9609 225.328 50.1484C224.961 50.3281 224.691 50.5586 224.52 50.8398C224.355 51.1211 224.273 51.418 224.273 51.7305C224.273 51.9648 224.312 52.1758 224.391 52.3633C224.477 52.543 224.625 52.7109 224.836 52.8672C225.047 53.0156 225.344 53.1562 225.727 53.2891C226.109 53.4219 226.598 53.5547 227.191 53.6875C228.23 53.9219 229.086 54.2031 229.758 54.5312C230.43 54.8594 230.93 55.2617 231.258 55.7383C231.586 56.2148 231.75 56.793 231.75 57.4727C231.75 58.0273 231.633 58.5352 231.398 58.9961C231.172 59.457 230.84 59.8555 230.402 60.1914C229.973 60.5195 229.457 60.7773 228.855 60.9648C228.262 61.1445 227.594 61.2344 226.852 61.2344C225.734 61.2344 224.789 61.0352 224.016 60.6367C223.242 60.2383 222.656 59.7227 222.258 59.0898C221.859 58.457 221.66 57.7891 221.66 57.0859H223.84C223.871 57.6797 224.043 58.1523 224.355 58.5039C224.668 58.8477 225.051 59.0938 225.504 59.2422C225.957 59.3828 226.406 59.4531 226.852 59.4531C227.445 59.4531 227.941 59.375 228.34 59.2188C228.746 59.0625 229.055 58.8477 229.266 58.5742C229.477 58.3008 229.582 57.9883 229.582 57.6367Z" fill="#888888"/>
<path d="M112.125 84.875V119H103.898V84.875H112.125ZM122.391 84.875V91.2266H93.8672V84.875H122.391ZM135.68 119.469C133.617 119.469 131.773 119.148 130.148 118.508C128.523 117.852 127.148 116.953 126.023 115.812C124.914 114.672 124.062 113.359 123.469 111.875C122.891 110.391 122.602 108.82 122.602 107.164V106.273C122.602 104.414 122.859 102.695 123.375 101.117C123.891 99.5234 124.656 98.1328 125.672 96.9453C126.688 95.7578 127.961 94.8359 129.492 94.1797C131.023 93.5078 132.805 93.1719 134.836 93.1719C136.633 93.1719 138.242 93.4609 139.664 94.0391C141.086 94.6172 142.289 95.4453 143.273 96.5234C144.273 97.6016 145.031 98.9062 145.547 100.438C146.078 101.969 146.344 103.688 146.344 105.594V108.805H125.625V103.859H138.633V103.25C138.648 102.406 138.5 101.688 138.188 101.094C137.891 100.5 137.453 100.047 136.875 99.7344C136.297 99.4219 135.594 99.2656 134.766 99.2656C133.906 99.2656 133.195 99.4531 132.633 99.8281C132.086 100.203 131.656 100.719 131.344 101.375C131.047 102.016 130.836 102.758 130.711 103.602C130.586 104.445 130.523 105.336 130.523 106.273V107.164C130.523 108.102 130.648 108.953 130.898 109.719C131.164 110.484 131.539 111.141 132.023 111.688C132.523 112.219 133.117 112.633 133.805 112.93C134.508 113.227 135.305 113.375 136.195 113.375C137.273 113.375 138.336 113.172 139.383 112.766C140.43 112.359 141.328 111.688 142.078 110.75L145.664 115.016C145.148 115.75 144.414 116.461 143.461 117.148C142.523 117.836 141.398 118.398 140.086 118.836C138.773 119.258 137.305 119.469 135.68 119.469ZM160.266 113.375C161 113.375 161.625 113.242 162.141 112.977C162.672 112.695 163.07 112.305 163.336 111.805C163.617 111.289 163.75 110.672 163.734 109.953H171.164C171.18 111.859 170.711 113.531 169.758 114.969C168.82 116.391 167.539 117.5 165.914 118.297C164.305 119.078 162.484 119.469 160.453 119.469C158.469 119.469 156.734 119.148 155.25 118.508C153.766 117.852 152.523 116.945 151.523 115.789C150.539 114.617 149.797 113.25 149.297 111.688C148.812 110.125 148.57 108.43 148.57 106.602V106.062C148.57 104.234 148.812 102.539 149.297 100.977C149.797 99.3984 150.539 98.0312 151.523 96.875C152.523 95.7031 153.758 94.7969 155.227 94.1562C156.711 93.5 158.438 93.1719 160.406 93.1719C162.516 93.1719 164.375 93.5703 165.984 94.3672C167.609 95.1641 168.883 96.3203 169.805 97.8359C170.727 99.3516 171.18 101.188 171.164 103.344H163.734C163.75 102.578 163.633 101.891 163.383 101.281C163.133 100.672 162.742 100.188 162.211 99.8281C161.695 99.4531 161.031 99.2656 160.219 99.2656C159.406 99.2656 158.75 99.4453 158.25 99.8047C157.75 100.164 157.367 100.664 157.102 101.305C156.852 101.93 156.68 102.648 156.586 103.461C156.508 104.273 156.469 105.141 156.469 106.062V106.602C156.469 107.539 156.508 108.422 156.586 109.25C156.68 110.062 156.859 110.781 157.125 111.406C157.391 112.016 157.773 112.5 158.273 112.859C158.773 113.203 159.438 113.375 160.266 113.375ZM182.273 83V119H174.375V83H182.273ZM181.336 105.453L179.484 105.5C179.484 103.719 179.703 102.078 180.141 100.578C180.578 99.0781 181.203 97.7734 182.016 96.6641C182.828 95.5547 183.805 94.6953 184.945 94.0859C186.086 93.4766 187.352 93.1719 188.742 93.1719C189.992 93.1719 191.133 93.3516 192.164 93.7109C193.211 94.0703 194.109 94.6484 194.859 95.4453C195.625 96.2422 196.211 97.2812 196.617 98.5625C197.039 99.8438 197.25 101.406 197.25 103.25V119H189.305V103.203C189.305 102.172 189.156 101.375 188.859 100.812C188.578 100.234 188.172 99.8359 187.641 99.6172C187.109 99.3828 186.461 99.2656 185.695 99.2656C184.773 99.2656 184.023 99.4219 183.445 99.7344C182.867 100.047 182.422 100.484 182.109 101.047C181.812 101.594 181.609 102.242 181.5 102.992C181.391 103.742 181.336 104.562 181.336 105.453ZM231.539 109.93C231.539 109.398 231.461 108.922 231.305 108.5C231.148 108.062 230.859 107.656 230.438 107.281C230.016 106.906 229.406 106.531 228.609 106.156C227.828 105.766 226.797 105.359 225.516 104.938C224.016 104.438 222.57 103.875 221.18 103.25C219.789 102.609 218.547 101.867 217.453 101.023C216.359 100.164 215.492 99.1641 214.852 98.0234C214.211 96.8672 213.891 95.5234 213.891 93.9922C213.891 92.5234 214.219 91.2031 214.875 90.0312C215.531 88.8438 216.445 87.8359 217.617 87.0078C218.805 86.1641 220.195 85.5234 221.789 85.0859C223.383 84.6328 225.125 84.4062 227.016 84.4062C229.516 84.4062 231.719 84.8438 233.625 85.7188C235.547 86.5781 237.047 87.8047 238.125 89.3984C239.219 90.9766 239.766 92.8438 239.766 95H231.586C231.586 94.1406 231.406 93.3828 231.047 92.7266C230.703 92.0703 230.18 91.5547 229.477 91.1797C228.773 90.8047 227.891 90.6172 226.828 90.6172C225.797 90.6172 224.93 90.7734 224.227 91.0859C223.523 91.3984 222.992 91.8203 222.633 92.3516C222.273 92.8672 222.094 93.4375 222.094 94.0625C222.094 94.5781 222.234 95.0469 222.516 95.4688C222.812 95.875 223.227 96.2578 223.758 96.6172C224.305 96.9766 224.961 97.3203 225.727 97.6484C226.508 97.9766 227.383 98.2969 228.352 98.6094C230.164 99.1875 231.773 99.8359 233.18 100.555C234.602 101.258 235.797 102.062 236.766 102.969C237.75 103.859 238.492 104.875 238.992 106.016C239.508 107.156 239.766 108.445 239.766 109.883C239.766 111.414 239.469 112.773 238.875 113.961C238.281 115.148 237.43 116.156 236.32 116.984C235.211 117.797 233.883 118.414 232.336 118.836C230.789 119.258 229.062 119.469 227.156 119.469C225.406 119.469 223.68 119.25 221.977 118.812C220.289 118.359 218.758 117.672 217.383 116.75C216.008 115.812 214.906 114.617 214.078 113.164C213.266 111.695 212.859 109.953 212.859 107.938H221.109C221.109 108.938 221.242 109.781 221.508 110.469C221.773 111.156 222.164 111.711 222.68 112.133C223.195 112.539 223.828 112.836 224.578 113.023C225.328 113.195 226.188 113.281 227.156 113.281C228.203 113.281 229.047 113.133 229.688 112.836C230.328 112.523 230.797 112.117 231.094 111.617C231.391 111.102 231.539 110.539 231.539 109.93ZM256.992 93.6406V99.125H241.711V93.6406H256.992ZM244.922 87.3359H252.82V110.727C252.82 111.398 252.898 111.922 253.055 112.297C253.211 112.656 253.477 112.914 253.852 113.07C254.242 113.211 254.758 113.281 255.398 113.281C255.852 113.281 256.227 113.273 256.523 113.258C256.82 113.227 257.102 113.188 257.367 113.141V118.789C256.695 119.008 255.992 119.172 255.258 119.281C254.523 119.406 253.742 119.469 252.914 119.469C251.227 119.469 249.781 119.203 248.578 118.672C247.391 118.141 246.484 117.305 245.859 116.164C245.234 115.023 244.922 113.539 244.922 111.711V87.3359ZM273.305 112.625V102.172C273.305 101.453 273.203 100.836 273 100.32C272.797 99.8047 272.477 99.4062 272.039 99.125C271.602 98.8281 271.016 98.6797 270.281 98.6797C269.688 98.6797 269.18 98.7812 268.758 98.9844C268.336 99.1875 268.016 99.4922 267.797 99.8984C267.578 100.305 267.469 100.82 267.469 101.445H259.57C259.57 100.273 259.828 99.1875 260.344 98.1875C260.875 97.1719 261.625 96.2891 262.594 95.5391C263.578 94.7891 264.75 94.2109 266.109 93.8047C267.484 93.3828 269.016 93.1719 270.703 93.1719C272.719 93.1719 274.516 93.5078 276.094 94.1797C277.688 94.8516 278.945 95.8594 279.867 97.2031C280.789 98.5312 281.25 100.203 281.25 102.219V112.602C281.25 114.258 281.344 115.516 281.531 116.375C281.719 117.219 281.984 117.961 282.328 118.602V119H274.406C274.031 118.219 273.75 117.266 273.562 116.141C273.391 115 273.305 113.828 273.305 112.625ZM274.266 103.508L274.312 107.727H270.82C270.086 107.727 269.461 107.828 268.945 108.031C268.445 108.234 268.039 108.516 267.727 108.875C267.43 109.219 267.211 109.609 267.07 110.047C266.945 110.484 266.883 110.945 266.883 111.43C266.883 111.898 266.992 112.32 267.211 112.695C267.445 113.055 267.758 113.336 268.148 113.539C268.539 113.742 268.977 113.844 269.461 113.844C270.336 113.844 271.078 113.68 271.688 113.352C272.312 113.008 272.789 112.594 273.117 112.109C273.445 111.625 273.609 111.172 273.609 110.75L275.344 113.984C275.031 114.609 274.672 115.242 274.266 115.883C273.875 116.523 273.383 117.117 272.789 117.664C272.211 118.195 271.5 118.633 270.656 118.977C269.812 119.305 268.789 119.469 267.586 119.469C266.023 119.469 264.586 119.148 263.273 118.508C261.977 117.867 260.938 116.977 260.156 115.836C259.375 114.68 258.984 113.352 258.984 111.852C258.984 110.539 259.219 109.367 259.688 108.336C260.172 107.305 260.898 106.43 261.867 105.711C262.836 104.992 264.07 104.445 265.57 104.07C267.07 103.695 268.836 103.508 270.867 103.508H274.266ZM296.344 113.375C297.078 113.375 297.703 113.242 298.219 112.977C298.75 112.695 299.148 112.305 299.414 111.805C299.695 111.289 299.828 110.672 299.812 109.953H307.242C307.258 111.859 306.789 113.531 305.836 114.969C304.898 116.391 303.617 117.5 301.992 118.297C300.383 119.078 298.562 119.469 296.531 119.469C294.547 119.469 292.812 119.148 291.328 118.508C289.844 117.852 288.602 116.945 287.602 115.789C286.617 114.617 285.875 113.25 285.375 111.688C284.891 110.125 284.648 108.43 284.648 106.602V106.062C284.648 104.234 284.891 102.539 285.375 100.977C285.875 99.3984 286.617 98.0312 287.602 96.875C288.602 95.7031 289.836 94.7969 291.305 94.1562C292.789 93.5 294.516 93.1719 296.484 93.1719C298.594 93.1719 300.453 93.5703 302.062 94.3672C303.688 95.1641 304.961 96.3203 305.883 97.8359C306.805 99.3516 307.258 101.188 307.242 103.344H299.812C299.828 102.578 299.711 101.891 299.461 101.281C299.211 100.672 298.82 100.188 298.289 99.8281C297.773 99.4531 297.109 99.2656 296.297 99.2656C295.484 99.2656 294.828 99.4453 294.328 99.8047C293.828 100.164 293.445 100.664 293.18 101.305C292.93 101.93 292.758 102.648 292.664 103.461C292.586 104.273 292.547 105.141 292.547 106.062V106.602C292.547 107.539 292.586 108.422 292.664 109.25C292.758 110.062 292.938 110.781 293.203 111.406C293.469 112.016 293.852 112.5 294.352 112.859C294.852 113.203 295.516 113.375 296.344 113.375ZM318.586 82.9766V119H310.688V82.9766H318.586ZM334.805 93.6406L323.789 106.555L318.023 112.32L314.578 107.305L319.383 101.047L325.336 93.6406H334.805ZM326.344 119L319.57 107.445L325.406 103.297L335.391 119H326.344Z" fill="black"/>
<path d="M1134 0H1348C1356.28 0 1363 6.71573 1363 15V148C1363 156.284 1356.28 163 1348 163H1134V0Z" fill="#03FA6E"/>
<path fill-rule="evenodd" clip-rule="evenodd" d="M1218.75 53C1218.62 53 1218.49 53.0527 1218.4 53.1464C1218.3 53.2402 1218.25 53.3674 1218.25 53.5V109.5C1218.25 109.633 1218.3 109.76 1218.4 109.854C1218.49 109.947 1218.62 110 1218.75 110H1278.25C1278.38 110 1278.51 109.947 1278.6 109.854C1278.7 109.76 1278.75 109.633 1278.75 109.5V64C1278.75 63.8674 1278.7 63.7402 1278.6 63.6464C1278.51 63.5527 1278.38 63.5 1278.25 63.5H1248.5C1247.61 63.5 1246.77 63.1045 1246.2 62.4206L1238.34 53H1218.75ZM1214.15 48.9038C1215.37 47.6848 1217.03 47 1218.75 47H1239.75C1240.64 47 1241.48 47.3955 1242.05 48.0794L1249.91 57.5H1278.25C1279.97 57.5 1281.63 58.1848 1282.85 59.4038C1284.07 60.6228 1284.75 62.2761 1284.75 64V109.5C1284.75 111.224 1284.07 112.877 1282.85 114.096C1281.63 115.315 1279.97 116 1278.25 116H1218.75C1217.03 116 1215.37 115.315 1214.15 114.096C1212.93 112.877 1212.25 111.224 1212.25 109.5V53.5C1212.25 51.7761 1212.93 50.1228 1214.15 48.9038Z" fill="white"/>
<path fill-rule="evenodd" clip-rule="evenodd" d="M1243.97 75.5251C1245.34 76.892 1245.34 79.108 1243.97 80.4749L1237.7 86.75L1243.97 93.0251C1245.34 94.392 1245.34 96.608 1243.97 97.9749C1242.61 99.3417 1240.39 99.3417 1239.03 97.9749L1230.28 89.2249C1228.91 87.858 1228.91 85.642 1230.28 84.2751L1239.03 75.5251C1240.39 74.1583 1242.61 74.1583 1243.97 75.5251Z" fill="white"/>
<path fill-rule="evenodd" clip-rule="evenodd" d="M1252.28 97.9749C1250.91 96.608 1250.91 94.392 1252.28 93.0251L1258.55 86.75L1252.28 80.4749C1250.91 79.108 1250.91 76.892 1252.28 75.5251C1253.64 74.1583 1255.86 74.1583 1257.22 75.5251L1265.97 84.2751C1267.34 85.642 1267.34 87.858 1265.97 89.2249L1257.22 97.9749C1255.86 99.3417 1253.64 99.3417 1252.28 97.9749Z" fill="white"/>
</svg>
