<svg width="1363" height="163" viewBox="0 0 1363 163" fill="none" xmlns="http://www.w3.org/2000/svg">
<path d="M0 15C0 6.71573 6.71573 0 15 0H37V163H15C6.71573 163 0 156.284 0 148V15Z" fill="#424242"/>
<rect width="1097" height="163" transform="translate(37)" fill="#F0F0F0"/>
<path d="M101.906 53.9219L94.3945 51.2383V48.0859L104.602 52.375V54.6367L101.906 53.9219ZM94.3945 56.1719L101.918 53.4297L104.602 52.7852V55.0352L94.3945 59.3242V56.1719ZM119.438 53.0195H115.113L115.09 51.2031H119.016C119.664 51.2031 120.23 51.0938 120.715 50.875C121.199 50.6562 121.574 50.3438 121.84 49.9375C122.113 49.5234 122.25 49.0312 122.25 48.4609C122.25 47.8359 122.129 47.3281 121.887 46.9375C121.652 46.5391 121.289 46.25 120.797 46.0703C120.312 45.8828 119.695 45.7891 118.945 45.7891H115.617V61H113.355V43.9375H118.945C119.82 43.9375 120.602 44.0273 121.289 44.207C121.977 44.3789 122.559 44.6523 123.035 45.0273C123.52 45.3945 123.887 45.8633 124.137 46.4336C124.387 47.0039 124.512 47.6875 124.512 48.4844C124.512 49.1875 124.332 49.8242 123.973 50.3945C123.613 50.957 123.113 51.418 122.473 51.7773C121.84 52.1367 121.098 52.3672 120.246 52.4688L119.438 53.0195ZM119.332 61H114.223L115.5 59.1602H119.332C120.051 59.1602 120.66 59.0352 121.16 58.7852C121.668 58.5352 122.055 58.1836 122.32 57.7305C122.586 57.2695 122.719 56.7266 122.719 56.1016C122.719 55.4688 122.605 54.9219 122.379 54.4609C122.152 54 121.797 53.6445 121.312 53.3945C120.828 53.1445 120.203 53.0195 119.438 53.0195H116.215L116.238 51.2031H120.645L121.125 51.8594C121.945 51.9297 122.641 52.1641 123.211 52.5625C123.781 52.9531 124.215 53.4531 124.512 54.0625C124.816 54.6719 124.969 55.3438 124.969 56.0781C124.969 57.1406 124.734 58.0391 124.266 58.7734C123.805 59.5 123.152 60.0547 122.309 60.4375C121.465 60.8125 120.473 61 119.332 61ZM131.543 59.6875L135.07 48.3203H137.391L132.305 62.957C132.188 63.2695 132.031 63.6055 131.836 63.9648C131.648 64.332 131.406 64.6797 131.109 65.0078C130.812 65.3359 130.453 65.6016 130.031 65.8047C129.617 66.0156 129.121 66.1211 128.543 66.1211C128.371 66.1211 128.152 66.0977 127.887 66.0508C127.621 66.0039 127.434 65.9648 127.324 65.9336L127.312 64.1758C127.375 64.1836 127.473 64.1914 127.605 64.1992C127.746 64.2148 127.844 64.2227 127.898 64.2227C128.391 64.2227 128.809 64.1562 129.152 64.0234C129.496 63.8984 129.785 63.6836 130.02 63.3789C130.262 63.082 130.469 62.6719 130.641 62.1484L131.543 59.6875ZM128.953 48.3203L132.246 58.1641L132.809 60.4492L131.25 61.2461L126.586 48.3203H128.953ZM144.656 48.3203V49.9844H137.801V48.3203H144.656ZM140.121 45.2383H142.289V57.8594C142.289 58.2891 142.355 58.6133 142.488 58.832C142.621 59.0508 142.793 59.1953 143.004 59.2656C143.215 59.3359 143.441 59.3711 143.684 59.3711C143.863 59.3711 144.051 59.3555 144.246 59.3242C144.449 59.2852 144.602 59.2539 144.703 59.2305L144.715 61C144.543 61.0547 144.316 61.1055 144.035 61.1523C143.762 61.207 143.43 61.2344 143.039 61.2344C142.508 61.2344 142.02 61.1289 141.574 60.918C141.129 60.707 140.773 60.3555 140.508 59.8633C140.25 59.3633 140.121 58.6914 140.121 57.8477V45.2383ZM152.461 61.2344C151.578 61.2344 150.777 61.0859 150.059 60.7891C149.348 60.4844 148.734 60.0586 148.219 59.5117C147.711 58.9648 147.32 58.3164 147.047 57.5664C146.773 56.8164 146.637 55.9961 146.637 55.1055V54.6133C146.637 53.582 146.789 52.6641 147.094 51.8594C147.398 51.0469 147.812 50.3594 148.336 49.7969C148.859 49.2344 149.453 48.8086 150.117 48.5195C150.781 48.2305 151.469 48.0859 152.18 48.0859C153.086 48.0859 153.867 48.2422 154.523 48.5547C155.188 48.8672 155.73 49.3047 156.152 49.8672C156.574 50.4219 156.887 51.0781 157.09 51.8359C157.293 52.5859 157.395 53.4062 157.395 54.2969V55.2695H147.926V53.5H155.227V53.3359C155.195 52.7734 155.078 52.2266 154.875 51.6953C154.68 51.1641 154.367 50.7266 153.938 50.3828C153.508 50.0391 152.922 49.8672 152.18 49.8672C151.688 49.8672 151.234 49.9727 150.82 50.1836C150.406 50.3867 150.051 50.6914 149.754 51.0977C149.457 51.5039 149.227 52 149.062 52.5859C148.898 53.1719 148.816 53.8477 148.816 54.6133V55.1055C148.816 55.707 148.898 56.2734 149.062 56.8047C149.234 57.3281 149.48 57.7891 149.801 58.1875C150.129 58.5859 150.523 58.8984 150.984 59.125C151.453 59.3516 151.984 59.4648 152.578 59.4648C153.344 59.4648 153.992 59.3086 154.523 58.9961C155.055 58.6836 155.52 58.2656 155.918 57.7422L157.23 58.7852C156.957 59.1992 156.609 59.5938 156.188 59.9688C155.766 60.3438 155.246 60.6484 154.629 60.8828C154.02 61.1172 153.297 61.2344 152.461 61.2344ZM166.336 53.0195H162.012L161.988 51.2031H165.914C166.562 51.2031 167.129 51.0938 167.613 50.875C168.098 50.6562 168.473 50.3438 168.738 49.9375C169.012 49.5234 169.148 49.0312 169.148 48.4609C169.148 47.8359 169.027 47.3281 168.785 46.9375C168.551 46.5391 168.188 46.25 167.695 46.0703C167.211 45.8828 166.594 45.7891 165.844 45.7891H162.516V61H160.254V43.9375H165.844C166.719 43.9375 167.5 44.0273 168.188 44.207C168.875 44.3789 169.457 44.6523 169.934 45.0273C170.418 45.3945 170.785 45.8633 171.035 46.4336C171.285 47.0039 171.41 47.6875 171.41 48.4844C171.41 49.1875 171.23 49.8242 170.871 50.3945C170.512 50.957 170.012 51.418 169.371 51.7773C168.738 52.1367 167.996 52.3672 167.145 52.4688L166.336 53.0195ZM166.23 61H161.121L162.398 59.1602H166.23C166.949 59.1602 167.559 59.0352 168.059 58.7852C168.566 58.5352 168.953 58.1836 169.219 57.7305C169.484 57.2695 169.617 56.7266 169.617 56.1016C169.617 55.4688 169.504 54.9219 169.277 54.4609C169.051 54 168.695 53.6445 168.211 53.3945C167.727 53.1445 167.102 53.0195 166.336 53.0195H163.113L163.137 51.2031H167.543L168.023 51.8594C168.844 51.9297 169.539 52.1641 170.109 52.5625C170.68 52.9531 171.113 53.4531 171.41 54.0625C171.715 54.6719 171.867 55.3438 171.867 56.0781C171.867 57.1406 171.633 58.0391 171.164 58.7734C170.703 59.5 170.051 60.0547 169.207 60.4375C168.363 60.8125 167.371 61 166.23 61ZM182.355 58.832V52.3047C182.355 51.8047 182.254 51.3711 182.051 51.0039C181.855 50.6289 181.559 50.3398 181.16 50.1367C180.762 49.9336 180.27 49.832 179.684 49.832C179.137 49.832 178.656 49.9258 178.242 50.1133C177.836 50.3008 177.516 50.5469 177.281 50.8516C177.055 51.1562 176.941 51.4844 176.941 51.8359H174.773C174.773 51.3828 174.891 50.9336 175.125 50.4883C175.359 50.043 175.695 49.6406 176.133 49.2812C176.578 48.9141 177.109 48.625 177.727 48.4141C178.352 48.1953 179.047 48.0859 179.812 48.0859C180.734 48.0859 181.547 48.2422 182.25 48.5547C182.961 48.8672 183.516 49.3398 183.914 49.9727C184.32 50.5977 184.523 51.3828 184.523 52.3281V58.2344C184.523 58.6562 184.559 59.1055 184.629 59.582C184.707 60.0586 184.82 60.4688 184.969 60.8125V61H182.707C182.598 60.75 182.512 60.418 182.449 60.0039C182.387 59.582 182.355 59.1914 182.355 58.832ZM182.73 53.3125L182.754 54.8359H180.562C179.945 54.8359 179.395 54.8867 178.91 54.9883C178.426 55.082 178.02 55.2266 177.691 55.4219C177.363 55.6172 177.113 55.8633 176.941 56.1602C176.77 56.4492 176.684 56.7891 176.684 57.1797C176.684 57.5781 176.773 57.9414 176.953 58.2695C177.133 58.5977 177.402 58.8594 177.762 59.0547C178.129 59.2422 178.578 59.3359 179.109 59.3359C179.773 59.3359 180.359 59.1953 180.867 58.9141C181.375 58.6328 181.777 58.2891 182.074 57.8828C182.379 57.4766 182.543 57.082 182.566 56.6992L183.492 57.7422C183.438 58.0703 183.289 58.4336 183.047 58.832C182.805 59.2305 182.48 59.6133 182.074 59.9805C181.676 60.3398 181.199 60.6406 180.645 60.8828C180.098 61.1172 179.48 61.2344 178.793 61.2344C177.934 61.2344 177.18 61.0664 176.531 60.7305C175.891 60.3945 175.391 59.9453 175.031 59.3828C174.68 58.8125 174.504 58.1758 174.504 57.4727C174.504 56.793 174.637 56.1953 174.902 55.6797C175.168 55.1562 175.551 54.7227 176.051 54.3789C176.551 54.0273 177.152 53.7617 177.855 53.582C178.559 53.4023 179.344 53.3125 180.211 53.3125H182.73ZM193.242 48.3203V49.9844H186.387V48.3203H193.242ZM188.707 45.2383H190.875V57.8594C190.875 58.2891 190.941 58.6133 191.074 58.832C191.207 59.0508 191.379 59.1953 191.59 59.2656C191.801 59.3359 192.027 59.3711 192.27 59.3711C192.449 59.3711 192.637 59.3555 192.832 59.3242C193.035 59.2852 193.188 59.2539 193.289 59.2305L193.301 61C193.129 61.0547 192.902 61.1055 192.621 61.1523C192.348 61.207 192.016 61.2344 191.625 61.2344C191.094 61.2344 190.605 61.1289 190.16 60.918C189.715 60.707 189.359 60.3555 189.094 59.8633C188.836 59.3633 188.707 58.6914 188.707 57.8477V45.2383ZM201.094 48.3203V49.9844H194.238V48.3203H201.094ZM196.559 45.2383H198.727V57.8594C198.727 58.2891 198.793 58.6133 198.926 58.832C199.059 59.0508 199.23 59.1953 199.441 59.2656C199.652 59.3359 199.879 59.3711 200.121 59.3711C200.301 59.3711 200.488 59.3555 200.684 59.3242C200.887 59.2852 201.039 59.2539 201.141 59.2305L201.152 61C200.98 61.0547 200.754 61.1055 200.473 61.1523C200.199 61.207 199.867 61.2344 199.477 61.2344C198.945 61.2344 198.457 61.1289 198.012 60.918C197.566 60.707 197.211 60.3555 196.945 59.8633C196.688 59.3633 196.559 58.6914 196.559 57.8477V45.2383ZM205.992 43V61H203.812V43H205.992ZM214.734 61.2344C213.852 61.2344 213.051 61.0859 212.332 60.7891C211.621 60.4844 211.008 60.0586 210.492 59.5117C209.984 58.9648 209.594 58.3164 209.32 57.5664C209.047 56.8164 208.91 55.9961 208.91 55.1055V54.6133C208.91 53.582 209.062 52.6641 209.367 51.8594C209.672 51.0469 210.086 50.3594 210.609 49.7969C211.133 49.2344 211.727 48.8086 212.391 48.5195C213.055 48.2305 213.742 48.0859 214.453 48.0859C215.359 48.0859 216.141 48.2422 216.797 48.5547C217.461 48.8672 218.004 49.3047 218.426 49.8672C218.848 50.4219 219.16 51.0781 219.363 51.8359C219.566 52.5859 219.668 53.4062 219.668 54.2969V55.2695H210.199V53.5H217.5V53.3359C217.469 52.7734 217.352 52.2266 217.148 51.6953C216.953 51.1641 216.641 50.7266 216.211 50.3828C215.781 50.0391 215.195 49.8672 214.453 49.8672C213.961 49.8672 213.508 49.9727 213.094 50.1836C212.68 50.3867 212.324 50.6914 212.027 51.0977C211.73 51.5039 211.5 52 211.336 52.5859C211.172 53.1719 211.09 53.8477 211.09 54.6133V55.1055C211.09 55.707 211.172 56.2734 211.336 56.8047C211.508 57.3281 211.754 57.7891 212.074 58.1875C212.402 58.5859 212.797 58.8984 213.258 59.125C213.727 59.3516 214.258 59.4648 214.852 59.4648C215.617 59.4648 216.266 59.3086 216.797 58.9961C217.328 58.6836 217.793 58.2656 218.191 57.7422L219.504 58.7852C219.23 59.1992 218.883 59.5938 218.461 59.9688C218.039 60.3438 217.52 60.6484 216.902 60.8828C216.293 61.1172 215.57 61.2344 214.734 61.2344ZM229.582 57.6367C229.582 57.3242 229.512 57.0352 229.371 56.7695C229.238 56.4961 228.961 56.25 228.539 56.0312C228.125 55.8047 227.5 55.6094 226.664 55.4453C225.961 55.2969 225.324 55.1211 224.754 54.918C224.191 54.7148 223.711 54.4688 223.312 54.1797C222.922 53.8906 222.621 53.5508 222.41 53.1602C222.199 52.7695 222.094 52.3125 222.094 51.7891C222.094 51.2891 222.203 50.8164 222.422 50.3711C222.648 49.9258 222.965 49.5312 223.371 49.1875C223.785 48.8438 224.281 48.5742 224.859 48.3789C225.438 48.1836 226.082 48.0859 226.793 48.0859C227.809 48.0859 228.676 48.2656 229.395 48.625C230.113 48.9844 230.664 49.4648 231.047 50.0664C231.43 50.6602 231.621 51.3203 231.621 52.0469H229.453C229.453 51.6953 229.348 51.3555 229.137 51.0273C228.934 50.6914 228.633 50.4141 228.234 50.1953C227.844 49.9766 227.363 49.8672 226.793 49.8672C226.191 49.8672 225.703 49.9609 225.328 50.1484C224.961 50.3281 224.691 50.5586 224.52 50.8398C224.355 51.1211 224.273 51.418 224.273 51.7305C224.273 51.9648 224.312 52.1758 224.391 52.3633C224.477 52.543 224.625 52.7109 224.836 52.8672C225.047 53.0156 225.344 53.1562 225.727 53.2891C226.109 53.4219 226.598 53.5547 227.191 53.6875C228.23 53.9219 229.086 54.2031 229.758 54.5312C230.43 54.8594 230.93 55.2617 231.258 55.7383C231.586 56.2148 231.75 56.793 231.75 57.4727C231.75 58.0273 231.633 58.5352 231.398 58.9961C231.172 59.457 230.84 59.8555 230.402 60.1914C229.973 60.5195 229.457 60.7773 228.855 60.9648C228.262 61.1445 227.594 61.2344 226.852 61.2344C225.734 61.2344 224.789 61.0352 224.016 60.6367C223.242 60.2383 222.656 59.7227 222.258 59.0898C221.859 58.457 221.66 57.7891 221.66 57.0859H223.84C223.871 57.6797 224.043 58.1523 224.355 58.5039C224.668 58.8477 225.051 59.0938 225.504 59.2422C225.957 59.3828 226.406 59.4531 226.852 59.4531C227.445 59.4531 227.941 59.375 228.34 59.2188C228.746 59.0625 229.055 58.8477 229.266 58.5742C229.477 58.3008 229.582 57.9883 229.582 57.6367Z" fill="#888888"/>
<path d="M109.219 107.422H100.734V101.07H109.219C110.375 101.07 111.312 100.875 112.031 100.484C112.75 100.094 113.273 99.5547 113.602 98.8672C113.945 98.1641 114.117 97.375 114.117 96.5C114.117 95.5625 113.945 94.6953 113.602 93.8984C113.273 93.1016 112.75 92.4609 112.031 91.9766C111.312 91.4766 110.375 91.2266 109.219 91.2266H103.828V119H95.6016V84.875H109.219C111.953 84.875 114.305 85.375 116.273 86.375C118.258 87.375 119.781 88.75 120.844 90.5C121.906 92.2344 122.438 94.2188 122.438 96.4531C122.438 98.6562 121.906 100.578 120.844 102.219C119.781 103.859 118.258 105.141 116.273 106.062C114.305 106.969 111.953 107.422 109.219 107.422ZM134.461 99.9219V119H126.562V93.6406H133.945L134.461 99.9219ZM141.961 93.4531L141.82 100.789C141.508 100.758 141.086 100.719 140.555 100.672C140.023 100.625 139.578 100.602 139.219 100.602C138.297 100.602 137.5 100.711 136.828 100.93C136.172 101.133 135.625 101.445 135.188 101.867C134.766 102.273 134.453 102.789 134.25 103.414C134.062 104.039 133.977 104.766 133.992 105.594L132.562 104.656C132.562 102.953 132.727 101.406 133.055 100.016C133.398 98.6094 133.883 97.3984 134.508 96.3828C135.133 95.3516 135.891 94.5625 136.781 94.0156C137.672 93.4531 138.672 93.1719 139.781 93.1719C140.172 93.1719 140.555 93.1953 140.93 93.2422C141.32 93.2891 141.664 93.3594 141.961 93.4531ZM142.852 106.578V106.086C142.852 104.227 143.117 102.516 143.648 100.953C144.18 99.375 144.961 98.0078 145.992 96.8516C147.023 95.6953 148.297 94.7969 149.812 94.1562C151.328 93.5 153.078 93.1719 155.062 93.1719C157.062 93.1719 158.82 93.5 160.336 94.1562C161.867 94.7969 163.148 95.6953 164.18 96.8516C165.211 98.0078 165.992 99.375 166.523 100.953C167.055 102.516 167.32 104.227 167.32 106.086V106.578C167.32 108.422 167.055 110.133 166.523 111.711C165.992 113.273 165.211 114.641 164.18 115.812C163.148 116.969 161.875 117.867 160.359 118.508C158.844 119.148 157.094 119.469 155.109 119.469C153.125 119.469 151.367 119.148 149.836 118.508C148.305 117.867 147.023 116.969 145.992 115.812C144.961 114.641 144.18 113.273 143.648 111.711C143.117 110.133 142.852 108.422 142.852 106.578ZM150.75 106.086V106.578C150.75 107.531 150.82 108.422 150.961 109.25C151.102 110.078 151.336 110.805 151.664 111.43C151.992 112.039 152.438 112.516 153 112.859C153.562 113.203 154.266 113.375 155.109 113.375C155.938 113.375 156.625 113.203 157.172 112.859C157.734 112.516 158.18 112.039 158.508 111.43C158.836 110.805 159.07 110.078 159.211 109.25C159.352 108.422 159.422 107.531 159.422 106.578V106.086C159.422 105.164 159.352 104.297 159.211 103.484C159.07 102.656 158.836 101.93 158.508 101.305C158.18 100.664 157.734 100.164 157.172 99.8047C156.609 99.4453 155.906 99.2656 155.062 99.2656C154.234 99.2656 153.539 99.4453 152.977 99.8047C152.43 100.164 151.992 100.664 151.664 101.305C151.336 101.93 151.102 102.656 150.961 103.484C150.82 104.297 150.75 105.164 150.75 106.086ZM184.195 93.6406V99.125H168.914V93.6406H184.195ZM172.125 87.3359H180.023V110.727C180.023 111.398 180.102 111.922 180.258 112.297C180.414 112.656 180.68 112.914 181.055 113.07C181.445 113.211 181.961 113.281 182.602 113.281C183.055 113.281 183.43 113.273 183.727 113.258C184.023 113.227 184.305 113.188 184.57 113.141V118.789C183.898 119.008 183.195 119.172 182.461 119.281C181.727 119.406 180.945 119.469 180.117 119.469C178.43 119.469 176.984 119.203 175.781 118.672C174.594 118.141 173.688 117.305 173.062 116.164C172.438 115.023 172.125 113.539 172.125 111.711V87.3359ZM185.648 106.578V106.086C185.648 104.227 185.914 102.516 186.445 100.953C186.977 99.375 187.758 98.0078 188.789 96.8516C189.82 95.6953 191.094 94.7969 192.609 94.1562C194.125 93.5 195.875 93.1719 197.859 93.1719C199.859 93.1719 201.617 93.5 203.133 94.1562C204.664 94.7969 205.945 95.6953 206.977 96.8516C208.008 98.0078 208.789 99.375 209.32 100.953C209.852 102.516 210.117 104.227 210.117 106.086V106.578C210.117 108.422 209.852 110.133 209.32 111.711C208.789 113.273 208.008 114.641 206.977 115.812C205.945 116.969 204.672 117.867 203.156 118.508C201.641 119.148 199.891 119.469 197.906 119.469C195.922 119.469 194.164 119.148 192.633 118.508C191.102 117.867 189.82 116.969 188.789 115.812C187.758 114.641 186.977 113.273 186.445 111.711C185.914 110.133 185.648 108.422 185.648 106.578ZM193.547 106.086V106.578C193.547 107.531 193.617 108.422 193.758 109.25C193.898 110.078 194.133 110.805 194.461 111.43C194.789 112.039 195.234 112.516 195.797 112.859C196.359 113.203 197.062 113.375 197.906 113.375C198.734 113.375 199.422 113.203 199.969 112.859C200.531 112.516 200.977 112.039 201.305 111.43C201.633 110.805 201.867 110.078 202.008 109.25C202.148 108.422 202.219 107.531 202.219 106.578V106.086C202.219 105.164 202.148 104.297 202.008 103.484C201.867 102.656 201.633 101.93 201.305 101.305C200.977 100.664 200.531 100.164 199.969 99.8047C199.406 99.4453 198.703 99.2656 197.859 99.2656C197.031 99.2656 196.336 99.4453 195.773 99.8047C195.227 100.164 194.789 100.664 194.461 101.305C194.133 101.93 193.898 102.656 193.758 103.484C193.617 104.297 193.547 105.164 193.547 106.086ZM226.992 93.6406V99.125H211.711V93.6406H226.992ZM214.922 87.3359H222.82V110.727C222.82 111.398 222.898 111.922 223.055 112.297C223.211 112.656 223.477 112.914 223.852 113.07C224.242 113.211 224.758 113.281 225.398 113.281C225.852 113.281 226.227 113.273 226.523 113.258C226.82 113.227 227.102 113.188 227.367 113.141V118.789C226.695 119.008 225.992 119.172 225.258 119.281C224.523 119.406 223.742 119.469 222.914 119.469C221.227 119.469 219.781 119.203 218.578 118.672C217.391 118.141 216.484 117.305 215.859 116.164C215.234 115.023 214.922 113.539 214.922 111.711V87.3359ZM237.914 116.023L244.477 93.6406H252.961L242.766 122.773C242.547 123.414 242.258 124.102 241.898 124.836C241.539 125.586 241.047 126.297 240.422 126.969C239.797 127.641 238.992 128.188 238.008 128.609C237.039 129.031 235.836 129.242 234.398 129.242C233.633 129.242 233.07 129.203 232.711 129.125C232.367 129.062 231.836 128.945 231.117 128.773V123.125C231.32 123.125 231.492 123.125 231.633 123.125C231.789 123.125 231.961 123.125 232.148 123.125C232.992 123.125 233.664 123.039 234.164 122.867C234.68 122.695 235.07 122.445 235.336 122.117C235.617 121.789 235.836 121.391 235.992 120.922L237.914 116.023ZM236.25 93.6406L241.242 111.383L242.109 119.75H236.812L227.789 93.6406H236.25ZM262.992 98.5156V128.75H255.094V93.6406H262.453L262.992 98.5156ZM278.555 106.016V106.508C278.555 108.352 278.344 110.062 277.922 111.641C277.5 113.219 276.875 114.594 276.047 115.766C275.219 116.938 274.188 117.852 272.953 118.508C271.734 119.148 270.32 119.469 268.711 119.469C267.195 119.469 265.891 119.133 264.797 118.461C263.703 117.789 262.789 116.859 262.055 115.672C261.32 114.484 260.727 113.125 260.273 111.594C259.82 110.062 259.461 108.445 259.195 106.742V106.109C259.461 104.281 259.82 102.586 260.273 101.023C260.727 99.4453 261.32 98.0703 262.055 96.8984C262.789 95.7266 263.695 94.8125 264.773 94.1562C265.867 93.5 267.172 93.1719 268.688 93.1719C270.297 93.1719 271.711 93.4766 272.93 94.0859C274.164 94.6953 275.195 95.5703 276.023 96.7109C276.867 97.8359 277.5 99.1875 277.922 100.766C278.344 102.344 278.555 104.094 278.555 106.016ZM270.656 106.508V106.016C270.656 105.031 270.586 104.133 270.445 103.32C270.305 102.492 270.078 101.773 269.766 101.164C269.469 100.555 269.07 100.086 268.57 99.7578C268.07 99.4297 267.453 99.2656 266.719 99.2656C265.875 99.2656 265.164 99.3984 264.586 99.6641C264.023 99.9141 263.57 100.305 263.227 100.836C262.898 101.352 262.664 102 262.523 102.781C262.398 103.547 262.344 104.445 262.359 105.477V107.398C262.328 108.586 262.445 109.633 262.711 110.539C262.977 111.43 263.438 112.125 264.094 112.625C264.75 113.125 265.641 113.375 266.766 113.375C267.516 113.375 268.141 113.203 268.641 112.859C269.141 112.5 269.539 112.008 269.836 111.383C270.133 110.742 270.344 110.008 270.469 109.18C270.594 108.352 270.656 107.461 270.656 106.508ZM290.414 93.6406V119H282.492V93.6406H290.414ZM282.023 87.1016C282.023 85.9766 282.43 85.0547 283.242 84.3359C284.055 83.6172 285.109 83.2578 286.406 83.2578C287.703 83.2578 288.758 83.6172 289.57 84.3359C290.383 85.0547 290.789 85.9766 290.789 87.1016C290.789 88.2266 290.383 89.1484 289.57 89.8672C288.758 90.5859 287.703 90.9453 286.406 90.9453C285.109 90.9453 284.055 90.5859 283.242 89.8672C282.43 89.1484 282.023 88.2266 282.023 87.1016ZM303.047 99.0547V119H295.148V93.6406H302.555L303.047 99.0547ZM302.109 105.453L300.258 105.5C300.258 103.562 300.492 101.836 300.961 100.32C301.43 98.7891 302.094 97.4922 302.953 96.4297C303.812 95.3672 304.836 94.5625 306.023 94.0156C307.227 93.4531 308.562 93.1719 310.031 93.1719C311.203 93.1719 312.273 93.3438 313.242 93.6875C314.227 94.0312 315.07 94.5859 315.773 95.3516C316.492 96.1172 317.039 97.1328 317.414 98.3984C317.805 99.6484 318 101.195 318 103.039V119H310.055V103.016C310.055 102 309.914 101.227 309.633 100.695C309.352 100.148 308.945 99.7734 308.414 99.5703C307.883 99.3672 307.234 99.2656 306.469 99.2656C305.656 99.2656 304.969 99.4219 304.406 99.7344C303.844 100.047 303.391 100.484 303.047 101.047C302.719 101.594 302.477 102.242 302.32 102.992C302.18 103.742 302.109 104.562 302.109 105.453ZM338.32 93.6406H345.492V118.016C345.492 120.359 344.953 122.344 343.875 123.969C342.797 125.609 341.289 126.852 339.352 127.695C337.43 128.555 335.18 128.984 332.602 128.984C331.461 128.984 330.297 128.836 329.109 128.539C327.922 128.258 326.812 127.836 325.781 127.273C324.75 126.711 323.883 126.016 323.18 125.188L326.484 120.547C327.125 121.266 327.93 121.875 328.898 122.375C329.867 122.891 331.008 123.148 332.32 123.148C333.461 123.148 334.414 122.945 335.18 122.539C335.961 122.133 336.555 121.539 336.961 120.758C337.367 119.992 337.57 119.062 337.57 117.969V99.6406L338.32 93.6406ZM321.469 106.625V106.133C321.469 104.211 321.703 102.461 322.172 100.883C322.656 99.2891 323.344 97.9219 324.234 96.7812C325.141 95.625 326.234 94.7344 327.516 94.1094C328.797 93.4844 330.242 93.1719 331.852 93.1719C333.586 93.1719 335.008 93.5078 336.117 94.1797C337.242 94.8359 338.141 95.7578 338.812 96.9453C339.5 98.1328 340.031 99.5234 340.406 101.117C340.797 102.695 341.125 104.398 341.391 106.227V106.812C341.125 108.531 340.758 110.156 340.289 111.688C339.836 113.203 339.242 114.547 338.508 115.719C337.773 116.891 336.852 117.812 335.742 118.484C334.648 119.141 333.336 119.469 331.805 119.469C330.211 119.469 328.773 119.148 327.492 118.508C326.227 117.867 325.141 116.969 324.234 115.812C323.344 114.656 322.656 113.297 322.172 111.734C321.703 110.172 321.469 108.469 321.469 106.625ZM329.367 106.133V106.625C329.367 107.578 329.453 108.461 329.625 109.273C329.812 110.086 330.094 110.805 330.469 111.43C330.844 112.039 331.305 112.516 331.852 112.859C332.414 113.203 333.07 113.375 333.82 113.375C334.961 113.375 335.883 113.133 336.586 112.648C337.289 112.164 337.797 111.477 338.109 110.586C338.422 109.695 338.555 108.648 338.508 107.445V105.594C338.539 104.562 338.469 103.656 338.297 102.875C338.125 102.078 337.852 101.414 337.477 100.883C337.117 100.352 336.633 99.9531 336.023 99.6875C335.43 99.4062 334.711 99.2656 333.867 99.2656C333.133 99.2656 332.484 99.4375 331.922 99.7812C331.359 100.125 330.891 100.609 330.516 101.234C330.141 101.844 329.852 102.57 329.648 103.414C329.461 104.242 329.367 105.148 329.367 106.133Z" fill="black"/>
<path d="M1134 0H1348C1356.28 0 1363 6.71573 1363 15V148C1363 156.284 1356.28 163 1348 163H1134V0Z" fill="#03FA6E"/>
<path fill-rule="evenodd" clip-rule="evenodd" d="M1202.75 46.5018C1202.75 45.3973 1203.65 44.5018 1204.75 44.5018H1292.25C1293.35 44.5018 1294.25 45.3973 1294.25 46.5018V116.498C1294.25 117.603 1293.35 118.498 1292.25 118.498H1204.75C1203.65 118.498 1202.75 117.603 1202.75 116.498V46.5018ZM1206.75 48.5018V52.9963H1290.25V48.5018H1206.75ZM1290.25 56.9963H1235.19V114.498H1290.25V56.9963ZM1231.19 114.498V56.9963H1206.75V114.498H1231.19Z" fill="white"/>
<path fill-rule="evenodd" clip-rule="evenodd" d="M1209.72 62.3022C1209.72 61.1976 1210.62 60.3022 1211.72 60.3022H1225.72C1226.83 60.3022 1227.72 61.1976 1227.72 62.3022V81.6974C1227.72 82.802 1226.83 83.6974 1225.72 83.6974H1211.72C1210.62 83.6974 1209.72 82.802 1209.72 81.6974V62.3022ZM1213.72 64.3022V79.6974H1223.72V64.3022H1213.72ZM1239.33 63.1982C1239.33 62.0936 1240.22 61.1982 1241.33 61.1982H1284.25C1285.36 61.1982 1286.25 62.0936 1286.25 63.1982V109.407C1286.25 110.511 1285.36 111.407 1284.25 111.407H1241.33C1240.22 111.407 1239.33 110.511 1239.33 109.407V63.1982ZM1243.33 65.1982V107.407H1282.25V65.1982H1243.33ZM1209.56 93.4381C1209.56 92.3336 1210.46 91.4381 1211.56 91.4381H1220.48C1221.59 91.4381 1222.48 92.3336 1222.48 93.4381C1222.48 94.5427 1221.59 95.4381 1220.48 95.4381H1211.56C1210.46 95.4381 1209.56 94.5427 1209.56 93.4381ZM1209.56 100.438C1209.56 99.3335 1210.46 98.4381 1211.56 98.4381H1226.1C1227.21 98.4381 1228.1 99.3335 1228.1 100.438C1228.1 101.543 1227.21 102.438 1226.1 102.438H1211.56C1210.46 102.438 1209.56 101.543 1209.56 100.438ZM1209.56 107.438C1209.56 106.334 1210.46 105.438 1211.56 105.438H1220.48C1221.59 105.438 1222.48 106.334 1222.48 107.438C1222.48 108.543 1221.59 109.438 1220.48 109.438H1211.56C1210.46 109.438 1209.56 108.543 1209.56 107.438Z" fill="white"/>
</svg>
