<svg width="1363" height="163" viewBox="0 0 1363 163" fill="none" xmlns="http://www.w3.org/2000/svg">
<path d="M0 15C0 6.71573 6.71573 0 15 0H37V163H15C6.71573 163 0 156.284 0 148V15Z" fill="#424242"/>
<rect width="1097" height="163" transform="translate(37)" fill="#F0F0F0"/>
<path d="M101.906 53.9219L94.3945 51.2383V48.0859L104.602 52.375V54.6367L101.906 53.9219ZM94.3945 56.1719L101.918 53.4297L104.602 52.7852V55.0352L94.3945 59.3242V56.1719ZM119.438 53.0195H115.113L115.09 51.2031H119.016C119.664 51.2031 120.23 51.0938 120.715 50.875C121.199 50.6562 121.574 50.3438 121.84 49.9375C122.113 49.5234 122.25 49.0312 122.25 48.4609C122.25 47.8359 122.129 47.3281 121.887 46.9375C121.652 46.5391 121.289 46.25 120.797 46.0703C120.312 45.8828 119.695 45.7891 118.945 45.7891H115.617V61H113.355V43.9375H118.945C119.82 43.9375 120.602 44.0273 121.289 44.207C121.977 44.3789 122.559 44.6523 123.035 45.0273C123.52 45.3945 123.887 45.8633 124.137 46.4336C124.387 47.0039 124.512 47.6875 124.512 48.4844C124.512 49.1875 124.332 49.8242 123.973 50.3945C123.613 50.957 123.113 51.418 122.473 51.7773C121.84 52.1367 121.098 52.3672 120.246 52.4688L119.438 53.0195ZM119.332 61H114.223L115.5 59.1602H119.332C120.051 59.1602 120.66 59.0352 121.16 58.7852C121.668 58.5352 122.055 58.1836 122.32 57.7305C122.586 57.2695 122.719 56.7266 122.719 56.1016C122.719 55.4688 122.605 54.9219 122.379 54.4609C122.152 54 121.797 53.6445 121.312 53.3945C120.828 53.1445 120.203 53.0195 119.438 53.0195H116.215L116.238 51.2031H120.645L121.125 51.8594C121.945 51.9297 122.641 52.1641 123.211 52.5625C123.781 52.9531 124.215 53.4531 124.512 54.0625C124.816 54.6719 124.969 55.3438 124.969 56.0781C124.969 57.1406 124.734 58.0391 124.266 58.7734C123.805 59.5 123.152 60.0547 122.309 60.4375C121.465 60.8125 120.473 61 119.332 61ZM131.543 59.6875L135.07 48.3203H137.391L132.305 62.957C132.188 63.2695 132.031 63.6055 131.836 63.9648C131.648 64.332 131.406 64.6797 131.109 65.0078C130.812 65.3359 130.453 65.6016 130.031 65.8047C129.617 66.0156 129.121 66.1211 128.543 66.1211C128.371 66.1211 128.152 66.0977 127.887 66.0508C127.621 66.0039 127.434 65.9648 127.324 65.9336L127.312 64.1758C127.375 64.1836 127.473 64.1914 127.605 64.1992C127.746 64.2148 127.844 64.2227 127.898 64.2227C128.391 64.2227 128.809 64.1562 129.152 64.0234C129.496 63.8984 129.785 63.6836 130.02 63.3789C130.262 63.082 130.469 62.6719 130.641 62.1484L131.543 59.6875ZM128.953 48.3203L132.246 58.1641L132.809 60.4492L131.25 61.2461L126.586 48.3203H128.953ZM144.656 48.3203V49.9844H137.801V48.3203H144.656ZM140.121 45.2383H142.289V57.8594C142.289 58.2891 142.355 58.6133 142.488 58.832C142.621 59.0508 142.793 59.1953 143.004 59.2656C143.215 59.3359 143.441 59.3711 143.684 59.3711C143.863 59.3711 144.051 59.3555 144.246 59.3242C144.449 59.2852 144.602 59.2539 144.703 59.2305L144.715 61C144.543 61.0547 144.316 61.1055 144.035 61.1523C143.762 61.207 143.43 61.2344 143.039 61.2344C142.508 61.2344 142.02 61.1289 141.574 60.918C141.129 60.707 140.773 60.3555 140.508 59.8633C140.25 59.3633 140.121 58.6914 140.121 57.8477V45.2383ZM152.461 61.2344C151.578 61.2344 150.777 61.0859 150.059 60.7891C149.348 60.4844 148.734 60.0586 148.219 59.5117C147.711 58.9648 147.32 58.3164 147.047 57.5664C146.773 56.8164 146.637 55.9961 146.637 55.1055V54.6133C146.637 53.582 146.789 52.6641 147.094 51.8594C147.398 51.0469 147.812 50.3594 148.336 49.7969C148.859 49.2344 149.453 48.8086 150.117 48.5195C150.781 48.2305 151.469 48.0859 152.18 48.0859C153.086 48.0859 153.867 48.2422 154.523 48.5547C155.188 48.8672 155.73 49.3047 156.152 49.8672C156.574 50.4219 156.887 51.0781 157.09 51.8359C157.293 52.5859 157.395 53.4062 157.395 54.2969V55.2695H147.926V53.5H155.227V53.3359C155.195 52.7734 155.078 52.2266 154.875 51.6953C154.68 51.1641 154.367 50.7266 153.938 50.3828C153.508 50.0391 152.922 49.8672 152.18 49.8672C151.688 49.8672 151.234 49.9727 150.82 50.1836C150.406 50.3867 150.051 50.6914 149.754 51.0977C149.457 51.5039 149.227 52 149.062 52.5859C148.898 53.1719 148.816 53.8477 148.816 54.6133V55.1055C148.816 55.707 148.898 56.2734 149.062 56.8047C149.234 57.3281 149.48 57.7891 149.801 58.1875C150.129 58.5859 150.523 58.8984 150.984 59.125C151.453 59.3516 151.984 59.4648 152.578 59.4648C153.344 59.4648 153.992 59.3086 154.523 58.9961C155.055 58.6836 155.52 58.2656 155.918 57.7422L157.23 58.7852C156.957 59.1992 156.609 59.5938 156.188 59.9688C155.766 60.3438 155.246 60.6484 154.629 60.8828C154.02 61.1172 153.297 61.2344 152.461 61.2344ZM166.336 53.0195H162.012L161.988 51.2031H165.914C166.562 51.2031 167.129 51.0938 167.613 50.875C168.098 50.6562 168.473 50.3438 168.738 49.9375C169.012 49.5234 169.148 49.0312 169.148 48.4609C169.148 47.8359 169.027 47.3281 168.785 46.9375C168.551 46.5391 168.188 46.25 167.695 46.0703C167.211 45.8828 166.594 45.7891 165.844 45.7891H162.516V61H160.254V43.9375H165.844C166.719 43.9375 167.5 44.0273 168.188 44.207C168.875 44.3789 169.457 44.6523 169.934 45.0273C170.418 45.3945 170.785 45.8633 171.035 46.4336C171.285 47.0039 171.41 47.6875 171.41 48.4844C171.41 49.1875 171.23 49.8242 170.871 50.3945C170.512 50.957 170.012 51.418 169.371 51.7773C168.738 52.1367 167.996 52.3672 167.145 52.4688L166.336 53.0195ZM166.23 61H161.121L162.398 59.1602H166.23C166.949 59.1602 167.559 59.0352 168.059 58.7852C168.566 58.5352 168.953 58.1836 169.219 57.7305C169.484 57.2695 169.617 56.7266 169.617 56.1016C169.617 55.4688 169.504 54.9219 169.277 54.4609C169.051 54 168.695 53.6445 168.211 53.3945C167.727 53.1445 167.102 53.0195 166.336 53.0195H163.113L163.137 51.2031H167.543L168.023 51.8594C168.844 51.9297 169.539 52.1641 170.109 52.5625C170.68 52.9531 171.113 53.4531 171.41 54.0625C171.715 54.6719 171.867 55.3438 171.867 56.0781C171.867 57.1406 171.633 58.0391 171.164 58.7734C170.703 59.5 170.051 60.0547 169.207 60.4375C168.363 60.8125 167.371 61 166.23 61ZM182.355 58.832V52.3047C182.355 51.8047 182.254 51.3711 182.051 51.0039C181.855 50.6289 181.559 50.3398 181.16 50.1367C180.762 49.9336 180.27 49.832 179.684 49.832C179.137 49.832 178.656 49.9258 178.242 50.1133C177.836 50.3008 177.516 50.5469 177.281 50.8516C177.055 51.1562 176.941 51.4844 176.941 51.8359H174.773C174.773 51.3828 174.891 50.9336 175.125 50.4883C175.359 50.043 175.695 49.6406 176.133 49.2812C176.578 48.9141 177.109 48.625 177.727 48.4141C178.352 48.1953 179.047 48.0859 179.812 48.0859C180.734 48.0859 181.547 48.2422 182.25 48.5547C182.961 48.8672 183.516 49.3398 183.914 49.9727C184.32 50.5977 184.523 51.3828 184.523 52.3281V58.2344C184.523 58.6562 184.559 59.1055 184.629 59.582C184.707 60.0586 184.82 60.4688 184.969 60.8125V61H182.707C182.598 60.75 182.512 60.418 182.449 60.0039C182.387 59.582 182.355 59.1914 182.355 58.832ZM182.73 53.3125L182.754 54.8359H180.562C179.945 54.8359 179.395 54.8867 178.91 54.9883C178.426 55.082 178.02 55.2266 177.691 55.4219C177.363 55.6172 177.113 55.8633 176.941 56.1602C176.77 56.4492 176.684 56.7891 176.684 57.1797C176.684 57.5781 176.773 57.9414 176.953 58.2695C177.133 58.5977 177.402 58.8594 177.762 59.0547C178.129 59.2422 178.578 59.3359 179.109 59.3359C179.773 59.3359 180.359 59.1953 180.867 58.9141C181.375 58.6328 181.777 58.2891 182.074 57.8828C182.379 57.4766 182.543 57.082 182.566 56.6992L183.492 57.7422C183.438 58.0703 183.289 58.4336 183.047 58.832C182.805 59.2305 182.48 59.6133 182.074 59.9805C181.676 60.3398 181.199 60.6406 180.645 60.8828C180.098 61.1172 179.48 61.2344 178.793 61.2344C177.934 61.2344 177.18 61.0664 176.531 60.7305C175.891 60.3945 175.391 59.9453 175.031 59.3828C174.68 58.8125 174.504 58.1758 174.504 57.4727C174.504 56.793 174.637 56.1953 174.902 55.6797C175.168 55.1562 175.551 54.7227 176.051 54.3789C176.551 54.0273 177.152 53.7617 177.855 53.582C178.559 53.4023 179.344 53.3125 180.211 53.3125H182.73ZM193.242 48.3203V49.9844H186.387V48.3203H193.242ZM188.707 45.2383H190.875V57.8594C190.875 58.2891 190.941 58.6133 191.074 58.832C191.207 59.0508 191.379 59.1953 191.59 59.2656C191.801 59.3359 192.027 59.3711 192.27 59.3711C192.449 59.3711 192.637 59.3555 192.832 59.3242C193.035 59.2852 193.188 59.2539 193.289 59.2305L193.301 61C193.129 61.0547 192.902 61.1055 192.621 61.1523C192.348 61.207 192.016 61.2344 191.625 61.2344C191.094 61.2344 190.605 61.1289 190.16 60.918C189.715 60.707 189.359 60.3555 189.094 59.8633C188.836 59.3633 188.707 58.6914 188.707 57.8477V45.2383ZM201.094 48.3203V49.9844H194.238V48.3203H201.094ZM196.559 45.2383H198.727V57.8594C198.727 58.2891 198.793 58.6133 198.926 58.832C199.059 59.0508 199.23 59.1953 199.441 59.2656C199.652 59.3359 199.879 59.3711 200.121 59.3711C200.301 59.3711 200.488 59.3555 200.684 59.3242C200.887 59.2852 201.039 59.2539 201.141 59.2305L201.152 61C200.98 61.0547 200.754 61.1055 200.473 61.1523C200.199 61.207 199.867 61.2344 199.477 61.2344C198.945 61.2344 198.457 61.1289 198.012 60.918C197.566 60.707 197.211 60.3555 196.945 59.8633C196.688 59.3633 196.559 58.6914 196.559 57.8477V45.2383ZM205.992 43V61H203.812V43H205.992ZM214.734 61.2344C213.852 61.2344 213.051 61.0859 212.332 60.7891C211.621 60.4844 211.008 60.0586 210.492 59.5117C209.984 58.9648 209.594 58.3164 209.32 57.5664C209.047 56.8164 208.91 55.9961 208.91 55.1055V54.6133C208.91 53.582 209.062 52.6641 209.367 51.8594C209.672 51.0469 210.086 50.3594 210.609 49.7969C211.133 49.2344 211.727 48.8086 212.391 48.5195C213.055 48.2305 213.742 48.0859 214.453 48.0859C215.359 48.0859 216.141 48.2422 216.797 48.5547C217.461 48.8672 218.004 49.3047 218.426 49.8672C218.848 50.4219 219.16 51.0781 219.363 51.8359C219.566 52.5859 219.668 53.4062 219.668 54.2969V55.2695H210.199V53.5H217.5V53.3359C217.469 52.7734 217.352 52.2266 217.148 51.6953C216.953 51.1641 216.641 50.7266 216.211 50.3828C215.781 50.0391 215.195 49.8672 214.453 49.8672C213.961 49.8672 213.508 49.9727 213.094 50.1836C212.68 50.3867 212.324 50.6914 212.027 51.0977C211.73 51.5039 211.5 52 211.336 52.5859C211.172 53.1719 211.09 53.8477 211.09 54.6133V55.1055C211.09 55.707 211.172 56.2734 211.336 56.8047C211.508 57.3281 211.754 57.7891 212.074 58.1875C212.402 58.5859 212.797 58.8984 213.258 59.125C213.727 59.3516 214.258 59.4648 214.852 59.4648C215.617 59.4648 216.266 59.3086 216.797 58.9961C217.328 58.6836 217.793 58.2656 218.191 57.7422L219.504 58.7852C219.23 59.1992 218.883 59.5938 218.461 59.9688C218.039 60.3438 217.52 60.6484 216.902 60.8828C216.293 61.1172 215.57 61.2344 214.734 61.2344ZM229.582 57.6367C229.582 57.3242 229.512 57.0352 229.371 56.7695C229.238 56.4961 228.961 56.25 228.539 56.0312C228.125 55.8047 227.5 55.6094 226.664 55.4453C225.961 55.2969 225.324 55.1211 224.754 54.918C224.191 54.7148 223.711 54.4688 223.312 54.1797C222.922 53.8906 222.621 53.5508 222.41 53.1602C222.199 52.7695 222.094 52.3125 222.094 51.7891C222.094 51.2891 222.203 50.8164 222.422 50.3711C222.648 49.9258 222.965 49.5312 223.371 49.1875C223.785 48.8438 224.281 48.5742 224.859 48.3789C225.438 48.1836 226.082 48.0859 226.793 48.0859C227.809 48.0859 228.676 48.2656 229.395 48.625C230.113 48.9844 230.664 49.4648 231.047 50.0664C231.43 50.6602 231.621 51.3203 231.621 52.0469H229.453C229.453 51.6953 229.348 51.3555 229.137 51.0273C228.934 50.6914 228.633 50.4141 228.234 50.1953C227.844 49.9766 227.363 49.8672 226.793 49.8672C226.191 49.8672 225.703 49.9609 225.328 50.1484C224.961 50.3281 224.691 50.5586 224.52 50.8398C224.355 51.1211 224.273 51.418 224.273 51.7305C224.273 51.9648 224.312 52.1758 224.391 52.3633C224.477 52.543 224.625 52.7109 224.836 52.8672C225.047 53.0156 225.344 53.1562 225.727 53.2891C226.109 53.4219 226.598 53.5547 227.191 53.6875C228.23 53.9219 229.086 54.2031 229.758 54.5312C230.43 54.8594 230.93 55.2617 231.258 55.7383C231.586 56.2148 231.75 56.793 231.75 57.4727C231.75 58.0273 231.633 58.5352 231.398 58.9961C231.172 59.457 230.84 59.8555 230.402 60.1914C229.973 60.5195 229.457 60.7773 228.855 60.9648C228.262 61.1445 227.594 61.2344 226.852 61.2344C225.734 61.2344 224.789 61.0352 224.016 60.6367C223.242 60.2383 222.656 59.7227 222.258 59.0898C221.859 58.457 221.66 57.7891 221.66 57.0859H223.84C223.871 57.6797 224.043 58.1523 224.355 58.5039C224.668 58.8477 225.051 59.0938 225.504 59.2422C225.957 59.3828 226.406 59.4531 226.852 59.4531C227.445 59.4531 227.941 59.375 228.34 59.2188C228.746 59.0625 229.055 58.8477 229.266 58.5742C229.477 58.3008 229.582 57.9883 229.582 57.6367Z" fill="#888888"/>
<path d="M118.594 98.4219V104.75H101.086V98.4219H118.594ZM103.828 84.875V119H95.6016V84.875H103.828ZM124.125 84.875V119H115.922V84.875H124.125ZM127.992 106.578V106.086C127.992 104.227 128.258 102.516 128.789 100.953C129.32 99.375 130.102 98.0078 131.133 96.8516C132.164 95.6953 133.438 94.7969 134.953 94.1562C136.469 93.5 138.219 93.1719 140.203 93.1719C142.203 93.1719 143.961 93.5 145.477 94.1562C147.008 94.7969 148.289 95.6953 149.32 96.8516C150.352 98.0078 151.133 99.375 151.664 100.953C152.195 102.516 152.461 104.227 152.461 106.086V106.578C152.461 108.422 152.195 110.133 151.664 111.711C151.133 113.273 150.352 114.641 149.32 115.812C148.289 116.969 147.016 117.867 145.5 118.508C143.984 119.148 142.234 119.469 140.25 119.469C138.266 119.469 136.508 119.148 134.977 118.508C133.445 117.867 132.164 116.969 131.133 115.812C130.102 114.641 129.32 113.273 128.789 111.711C128.258 110.133 127.992 108.422 127.992 106.578ZM135.891 106.086V106.578C135.891 107.531 135.961 108.422 136.102 109.25C136.242 110.078 136.477 110.805 136.805 111.43C137.133 112.039 137.578 112.516 138.141 112.859C138.703 113.203 139.406 113.375 140.25 113.375C141.078 113.375 141.766 113.203 142.312 112.859C142.875 112.516 143.32 112.039 143.648 111.43C143.977 110.805 144.211 110.078 144.352 109.25C144.492 108.422 144.562 107.531 144.562 106.578V106.086C144.562 105.164 144.492 104.297 144.352 103.484C144.211 102.656 143.977 101.93 143.648 101.305C143.32 100.664 142.875 100.164 142.312 99.8047C141.75 99.4453 141.047 99.2656 140.203 99.2656C139.375 99.2656 138.68 99.4453 138.117 99.8047C137.57 100.164 137.133 100.664 136.805 101.305C136.477 101.93 136.242 102.656 136.102 103.484C135.961 104.297 135.891 105.164 135.891 106.086ZM163.688 111.453L168.375 93.6406H173.32L171.562 102.57L166.922 119H162.961L163.688 111.453ZM161.836 93.6406L164.742 111.312L165.07 119H160.266L154.266 93.6406H161.836ZM177.492 110.938L180.422 93.6406H187.992L182.039 119H177.234L177.492 110.938ZM173.883 93.6406L178.617 111.406L179.344 119H175.336L170.789 102.617L169.102 93.6406H173.883ZM218.297 84.875V119H210.07V84.875H218.297ZM228.562 84.875V91.2266H200.039V84.875H228.562ZM225.773 106.578V106.086C225.773 104.227 226.039 102.516 226.57 100.953C227.102 99.375 227.883 98.0078 228.914 96.8516C229.945 95.6953 231.219 94.7969 232.734 94.1562C234.25 93.5 236 93.1719 237.984 93.1719C239.984 93.1719 241.742 93.5 243.258 94.1562C244.789 94.7969 246.07 95.6953 247.102 96.8516C248.133 98.0078 248.914 99.375 249.445 100.953C249.977 102.516 250.242 104.227 250.242 106.086V106.578C250.242 108.422 249.977 110.133 249.445 111.711C248.914 113.273 248.133 114.641 247.102 115.812C246.07 116.969 244.797 117.867 243.281 118.508C241.766 119.148 240.016 119.469 238.031 119.469C236.047 119.469 234.289 119.148 232.758 118.508C231.227 117.867 229.945 116.969 228.914 115.812C227.883 114.641 227.102 113.273 226.57 111.711C226.039 110.133 225.773 108.422 225.773 106.578ZM233.672 106.086V106.578C233.672 107.531 233.742 108.422 233.883 109.25C234.023 110.078 234.258 110.805 234.586 111.43C234.914 112.039 235.359 112.516 235.922 112.859C236.484 113.203 237.188 113.375 238.031 113.375C238.859 113.375 239.547 113.203 240.094 112.859C240.656 112.516 241.102 112.039 241.43 111.43C241.758 110.805 241.992 110.078 242.133 109.25C242.273 108.422 242.344 107.531 242.344 106.578V106.086C242.344 105.164 242.273 104.297 242.133 103.484C241.992 102.656 241.758 101.93 241.43 101.305C241.102 100.664 240.656 100.164 240.094 99.8047C239.531 99.4453 238.828 99.2656 237.984 99.2656C237.156 99.2656 236.461 99.4453 235.898 99.8047C235.352 100.164 234.914 100.664 234.586 101.305C234.258 101.93 234.023 102.656 233.883 103.484C233.742 104.297 233.672 105.164 233.672 106.086ZM266.086 84.875H279.516C282.141 84.875 284.422 85.2656 286.359 86.0469C288.297 86.8281 289.789 87.9844 290.836 89.5156C291.898 91.0469 292.43 92.9375 292.43 95.1875C292.43 97.1406 292.125 98.7734 291.516 100.086C290.906 101.398 290.055 102.484 288.961 103.344C287.883 104.188 286.625 104.883 285.188 105.43L282.492 106.953H271.219L271.172 100.602H279.516C280.562 100.602 281.43 100.414 282.117 100.039C282.805 99.6641 283.32 99.1328 283.664 98.4453C284.023 97.7422 284.203 96.9062 284.203 95.9375C284.203 94.9531 284.023 94.1094 283.664 93.4062C283.305 92.7031 282.773 92.1641 282.07 91.7891C281.383 91.4141 280.531 91.2266 279.516 91.2266H274.312V119H266.086V84.875ZM284.766 119L277.219 103.906L285.938 103.859L293.578 118.648V119H284.766ZM311.836 112.836V93.6406H319.758V119H312.352L311.836 112.836ZM312.586 107.68L314.648 107.633C314.648 109.336 314.445 110.914 314.039 112.367C313.633 113.805 313.031 115.055 312.234 116.117C311.453 117.18 310.484 118.008 309.328 118.602C308.188 119.18 306.867 119.469 305.367 119.469C304.117 119.469 302.969 119.297 301.922 118.953C300.891 118.594 300 118.039 299.25 117.289C298.5 116.523 297.914 115.547 297.492 114.359C297.086 113.156 296.883 111.719 296.883 110.047V93.6406H304.781V110.094C304.781 110.656 304.852 111.141 304.992 111.547C305.133 111.953 305.336 112.297 305.602 112.578C305.867 112.844 306.195 113.047 306.586 113.188C306.992 113.312 307.453 113.375 307.969 113.375C309.156 113.375 310.086 113.125 310.758 112.625C311.43 112.125 311.898 111.445 312.164 110.586C312.445 109.727 312.586 108.758 312.586 107.68ZM331.875 99.0547V119H323.977V93.6406H331.383L331.875 99.0547ZM330.938 105.453L329.086 105.5C329.086 103.562 329.32 101.836 329.789 100.32C330.258 98.7891 330.922 97.4922 331.781 96.4297C332.641 95.3672 333.664 94.5625 334.852 94.0156C336.055 93.4531 337.391 93.1719 338.859 93.1719C340.031 93.1719 341.102 93.3438 342.07 93.6875C343.055 94.0312 343.898 94.5859 344.602 95.3516C345.32 96.1172 345.867 97.1328 346.242 98.3984C346.633 99.6484 346.828 101.195 346.828 103.039V119H338.883V103.016C338.883 102 338.742 101.227 338.461 100.695C338.18 100.148 337.773 99.7734 337.242 99.5703C336.711 99.3672 336.062 99.2656 335.297 99.2656C334.484 99.2656 333.797 99.4219 333.234 99.7344C332.672 100.047 332.219 100.484 331.875 101.047C331.547 101.594 331.305 102.242 331.148 102.992C331.008 103.742 330.938 104.562 330.938 105.453ZM363.773 108.195H357.047C357.047 106.82 357.141 105.609 357.328 104.562C357.531 103.5 357.875 102.547 358.359 101.703C358.844 100.859 359.5 100.078 360.328 99.3594C361.062 98.75 361.695 98.1641 362.227 97.6016C362.758 97.0391 363.164 96.4688 363.445 95.8906C363.727 95.3125 363.867 94.6953 363.867 94.0391C363.867 93.2266 363.75 92.5625 363.516 92.0469C363.297 91.5312 362.961 91.1484 362.508 90.8984C362.07 90.6328 361.516 90.5 360.844 90.5C360.297 90.5 359.781 90.6328 359.297 90.8984C358.828 91.1641 358.445 91.5781 358.148 92.1406C357.852 92.6875 357.688 93.4141 357.656 94.3203H349.711C349.758 91.9922 350.273 90.1016 351.258 88.6484C352.258 87.1797 353.586 86.1094 355.242 85.4375C356.914 84.75 358.781 84.4062 360.844 84.4062C363.125 84.4062 365.086 84.7578 366.727 85.4609C368.367 86.1641 369.625 87.2109 370.5 88.6016C371.375 89.9766 371.812 91.6719 371.812 93.6875C371.812 95.0312 371.555 96.2031 371.039 97.2031C370.539 98.1875 369.859 99.1094 369 99.9688C368.156 100.812 367.211 101.719 366.164 102.688C365.258 103.484 364.641 104.297 364.312 105.125C363.984 105.938 363.805 106.961 363.773 108.195ZM356.086 115.32C356.086 114.195 356.492 113.258 357.305 112.508C358.117 111.742 359.172 111.359 360.469 111.359C361.766 111.359 362.82 111.742 363.633 112.508C364.445 113.258 364.852 114.195 364.852 115.32C364.852 116.445 364.445 117.391 363.633 118.156C362.82 118.906 361.766 119.281 360.469 119.281C359.172 119.281 358.117 118.906 357.305 118.156C356.492 117.391 356.086 116.445 356.086 115.32Z" fill="black"/>
<path d="M1134 0H1348C1356.28 0 1363 6.71573 1363 15V148C1363 156.284 1356.28 163 1348 163H1134V0Z" fill="#03FA6E"/>
<path d="M1260.62 78.8078C1263.81 78.8078 1266.93 79.7552 1269.59 81.5302C1272.25 83.3052 1274.32 85.8281 1275.54 88.7798C1276.76 91.7315 1277.08 94.9795 1276.46 98.1131C1275.84 101.247 1274.3 104.125 1272.04 106.384C1269.78 108.643 1266.9 110.182 1263.77 110.805C1260.63 111.428 1257.39 111.108 1254.43 109.886C1251.48 108.663 1248.96 106.593 1247.18 103.936C1245.41 101.28 1244.46 98.1565 1244.46 94.9616C1244.46 90.6774 1246.16 86.5686 1249.19 83.5392C1252.22 80.5097 1256.33 78.8078 1260.62 78.8078ZM1260.62 73.4232C1256.36 73.4232 1252.19 74.6864 1248.65 77.0531C1245.11 79.4198 1242.35 82.7836 1240.72 86.7192C1239.09 90.6549 1238.66 94.9855 1239.49 99.1636C1240.32 103.342 1242.37 107.179 1245.39 110.192C1248.4 113.204 1252.24 115.255 1256.41 116.086C1260.59 116.917 1264.92 116.491 1268.86 114.861C1272.79 113.23 1276.16 110.47 1278.52 106.928C1280.89 103.386 1282.15 99.2215 1282.15 94.9616C1282.15 89.2493 1279.88 83.7709 1275.85 79.7317C1271.81 75.6924 1266.33 73.4232 1260.62 73.4232Z" fill="white"/>
<path d="M1274.08 46.4999H1220.23C1218.8 46.4999 1217.43 47.0672 1216.42 48.0771C1215.41 49.0869 1214.85 50.4565 1214.85 51.8845V105.731C1214.85 107.159 1215.41 108.528 1216.42 109.538C1217.43 110.548 1218.8 111.115 1220.23 111.115H1231V105.731H1220.23V68.0383H1279.46V51.8845C1279.46 50.4565 1278.89 49.0869 1277.88 48.0771C1276.87 47.0672 1275.5 46.4999 1274.08 46.4999ZM1220.23 62.6537V51.8845H1274.08V62.6537H1220.23Z" fill="white"/>
<path d="M1255.23 86.8848V103.039L1268.69 94.9617L1255.23 86.8848Z" fill="white"/>
</svg>
