<svg width="1363" height="163" viewBox="0 0 1363 163" fill="none" xmlns="http://www.w3.org/2000/svg">
<path d="M0 15C0 6.71573 6.71573 0 15 0H37V163H15C6.71573 163 0 156.284 0 148V15Z" fill="#424242"/>
<rect width="1097" height="163" transform="translate(37)" fill="#F0F0F0"/>
<path d="M101.906 53.9219L94.3945 51.2383V48.0859L104.602 52.375V54.6367L101.906 53.9219ZM94.3945 56.1719L101.918 53.4297L104.602 52.7852V55.0352L94.3945 59.3242V56.1719ZM119.578 53.5117H115.195L115.172 51.0977H118.852C119.5 51.0977 120.031 51.0156 120.445 50.8516C120.859 50.6797 121.168 50.4336 121.371 50.1133C121.582 49.7852 121.688 49.3867 121.688 48.918C121.688 48.3867 121.586 47.957 121.383 47.6289C121.188 47.3008 120.879 47.0625 120.457 46.9141C120.043 46.7656 119.508 46.6914 118.852 46.6914H116.414V61H112.898V43.9375H118.852C119.844 43.9375 120.73 44.0312 121.512 44.2188C122.301 44.4062 122.969 44.6914 123.516 45.0742C124.062 45.457 124.48 45.9414 124.77 46.5273C125.059 47.1055 125.203 47.793 125.203 48.5898C125.203 49.293 125.043 49.9414 124.723 50.5352C124.41 51.1289 123.914 51.6133 123.234 51.9883C122.562 52.3633 121.684 52.5703 120.598 52.6094L119.578 53.5117ZM119.426 61H114.234L115.605 58.2578H119.426C120.043 58.2578 120.547 58.1602 120.938 57.9648C121.328 57.7617 121.617 57.4883 121.805 57.1445C121.992 56.8008 122.086 56.4062 122.086 55.9609C122.086 55.4609 122 55.0273 121.828 54.6602C121.664 54.293 121.398 54.0117 121.031 53.8164C120.664 53.6133 120.18 53.5117 119.578 53.5117H116.191L116.215 51.0977H120.434L121.242 52.0469C122.281 52.0312 123.117 52.2148 123.75 52.5977C124.391 52.9727 124.855 53.4609 125.145 54.0625C125.441 54.6641 125.59 55.3086 125.59 55.9961C125.59 57.0898 125.352 58.0117 124.875 58.7617C124.398 59.5039 123.699 60.0625 122.777 60.4375C121.863 60.8125 120.746 61 119.426 61ZM131.777 59.5703L135.141 48.3203H138.762L133.664 62.9102C133.555 63.2305 133.406 63.5742 133.219 63.9414C133.039 64.3086 132.793 64.6562 132.48 64.9844C132.176 65.3203 131.789 65.5938 131.32 65.8047C130.859 66.0156 130.293 66.1211 129.621 66.1211C129.301 66.1211 129.039 66.1016 128.836 66.0625C128.633 66.0234 128.391 65.9688 128.109 65.8984V63.4258C128.195 63.4258 128.285 63.4258 128.379 63.4258C128.473 63.4336 128.562 63.4375 128.648 63.4375C129.094 63.4375 129.457 63.3867 129.738 63.2852C130.02 63.1836 130.246 63.0273 130.418 62.8164C130.59 62.6133 130.727 62.3477 130.828 62.0195L131.777 59.5703ZM130.371 48.3203L133.125 57.5078L133.605 61.082L131.309 61.3281L126.75 48.3203H130.371ZM146.32 48.3203V50.7109H138.938V48.3203H146.32ZM140.766 45.1914H144.141V57.1797C144.141 57.5469 144.188 57.8281 144.281 58.0234C144.383 58.2188 144.531 58.3555 144.727 58.4336C144.922 58.5039 145.168 58.5391 145.465 58.5391C145.676 58.5391 145.863 58.5312 146.027 58.5156C146.199 58.4922 146.344 58.4688 146.461 58.4453L146.473 60.9297C146.184 61.0234 145.871 61.0977 145.535 61.1523C145.199 61.207 144.828 61.2344 144.422 61.2344C143.68 61.2344 143.031 61.1133 142.477 60.8711C141.93 60.6211 141.508 60.2227 141.211 59.6758C140.914 59.1289 140.766 58.4102 140.766 57.5195V45.1914ZM154.078 61.2344C153.094 61.2344 152.211 61.0781 151.43 60.7656C150.648 60.4453 149.984 60.0039 149.438 59.4414C148.898 58.8789 148.484 58.2266 148.195 57.4844C147.906 56.7344 147.762 55.9375 147.762 55.0938V54.625C147.762 53.6641 147.898 52.7852 148.172 51.9883C148.445 51.1914 148.836 50.5 149.344 49.9141C149.859 49.3281 150.484 48.8789 151.219 48.5664C151.953 48.2461 152.781 48.0859 153.703 48.0859C154.602 48.0859 155.398 48.2344 156.094 48.5312C156.789 48.8281 157.371 49.25 157.84 49.7969C158.316 50.3438 158.676 51 158.918 51.7656C159.16 52.5234 159.281 53.3672 159.281 54.2969V55.7031H149.203V53.4531H155.965V53.1953C155.965 52.7266 155.879 52.3086 155.707 51.9414C155.543 51.5664 155.293 51.2695 154.957 51.0508C154.621 50.832 154.191 50.7227 153.668 50.7227C153.223 50.7227 152.84 50.8203 152.52 51.0156C152.199 51.2109 151.938 51.4844 151.734 51.8359C151.539 52.1875 151.391 52.6016 151.289 53.0781C151.195 53.5469 151.148 54.0625 151.148 54.625V55.0938C151.148 55.6016 151.219 56.0703 151.359 56.5C151.508 56.9297 151.715 57.3008 151.98 57.6133C152.254 57.9258 152.582 58.168 152.965 58.3398C153.355 58.5117 153.797 58.5977 154.289 58.5977C154.898 58.5977 155.465 58.4805 155.988 58.2461C156.52 58.0039 156.977 57.6406 157.359 57.1562L159 58.9375C158.734 59.3203 158.371 59.6875 157.91 60.0391C157.457 60.3906 156.91 60.6797 156.27 60.9062C155.629 61.125 154.898 61.2344 154.078 61.2344ZM168.094 53.5117H163.711L163.688 51.0977H167.367C168.016 51.0977 168.547 51.0156 168.961 50.8516C169.375 50.6797 169.684 50.4336 169.887 50.1133C170.098 49.7852 170.203 49.3867 170.203 48.918C170.203 48.3867 170.102 47.957 169.898 47.6289C169.703 47.3008 169.395 47.0625 168.973 46.9141C168.559 46.7656 168.023 46.6914 167.367 46.6914H164.93V61H161.414V43.9375H167.367C168.359 43.9375 169.246 44.0312 170.027 44.2188C170.816 44.4062 171.484 44.6914 172.031 45.0742C172.578 45.457 172.996 45.9414 173.285 46.5273C173.574 47.1055 173.719 47.793 173.719 48.5898C173.719 49.293 173.559 49.9414 173.238 50.5352C172.926 51.1289 172.43 51.6133 171.75 51.9883C171.078 52.3633 170.199 52.5703 169.113 52.6094L168.094 53.5117ZM167.941 61H162.75L164.121 58.2578H167.941C168.559 58.2578 169.062 58.1602 169.453 57.9648C169.844 57.7617 170.133 57.4883 170.32 57.1445C170.508 56.8008 170.602 56.4062 170.602 55.9609C170.602 55.4609 170.516 55.0273 170.344 54.6602C170.18 54.293 169.914 54.0117 169.547 53.8164C169.18 53.6133 168.695 53.5117 168.094 53.5117H164.707L164.73 51.0977H168.949L169.758 52.0469C170.797 52.0312 171.633 52.2148 172.266 52.5977C172.906 52.9727 173.371 53.4609 173.66 54.0625C173.957 54.6641 174.105 55.3086 174.105 55.9961C174.105 57.0898 173.867 58.0117 173.391 58.7617C172.914 59.5039 172.215 60.0625 171.293 60.4375C170.379 60.8125 169.262 61 167.941 61ZM183.375 58.1406V52.4922C183.375 52.0859 183.309 51.7383 183.176 51.4492C183.043 51.1523 182.836 50.9219 182.555 50.7578C182.281 50.5938 181.926 50.5117 181.488 50.5117C181.113 50.5117 180.789 50.5781 180.516 50.7109C180.242 50.8359 180.031 51.0195 179.883 51.2617C179.734 51.4961 179.66 51.7734 179.66 52.0938H176.285C176.285 51.5547 176.41 51.043 176.66 50.5586C176.91 50.0742 177.273 49.6484 177.75 49.2812C178.227 48.9062 178.793 48.6133 179.449 48.4023C180.113 48.1914 180.855 48.0859 181.676 48.0859C182.66 48.0859 183.535 48.25 184.301 48.5781C185.066 48.9062 185.668 49.3984 186.105 50.0547C186.551 50.7109 186.773 51.5312 186.773 52.5156V57.9414C186.773 58.6367 186.816 59.207 186.902 59.6523C186.988 60.0898 187.113 60.4727 187.277 60.8008V61H183.867C183.703 60.6562 183.578 60.2266 183.492 59.7109C183.414 59.1875 183.375 58.6641 183.375 58.1406ZM183.82 53.2773L183.844 55.1875H181.957C181.512 55.1875 181.125 55.2383 180.797 55.3398C180.469 55.4414 180.199 55.5859 179.988 55.7734C179.777 55.9531 179.621 56.1641 179.52 56.4062C179.426 56.6484 179.379 56.9141 179.379 57.2031C179.379 57.4922 179.445 57.7539 179.578 57.9883C179.711 58.2148 179.902 58.3945 180.152 58.5273C180.402 58.6523 180.695 58.7148 181.031 58.7148C181.539 58.7148 181.98 58.6133 182.355 58.4102C182.73 58.207 183.02 57.957 183.223 57.6602C183.434 57.3633 183.543 57.082 183.551 56.8164L184.441 58.2461C184.316 58.5664 184.145 58.8984 183.926 59.2422C183.715 59.5859 183.445 59.9102 183.117 60.2148C182.789 60.5117 182.395 60.7578 181.934 60.9531C181.473 61.1406 180.926 61.2344 180.293 61.2344C179.488 61.2344 178.758 61.0742 178.102 60.7539C177.453 60.4258 176.938 59.9766 176.555 59.4062C176.18 58.8281 175.992 58.1719 175.992 57.4375C175.992 56.7734 176.117 56.1836 176.367 55.668C176.617 55.1523 176.984 54.7188 177.469 54.3672C177.961 54.0078 178.574 53.7383 179.309 53.5586C180.043 53.3711 180.895 53.2773 181.863 53.2773H183.82ZM195.586 48.3203V50.7109H188.203V48.3203H195.586ZM190.031 45.1914H193.406V57.1797C193.406 57.5469 193.453 57.8281 193.547 58.0234C193.648 58.2188 193.797 58.3555 193.992 58.4336C194.188 58.5039 194.434 58.5391 194.73 58.5391C194.941 58.5391 195.129 58.5312 195.293 58.5156C195.465 58.4922 195.609 58.4688 195.727 58.4453L195.738 60.9297C195.449 61.0234 195.137 61.0977 194.801 61.1523C194.465 61.207 194.094 61.2344 193.688 61.2344C192.945 61.2344 192.297 61.1133 191.742 60.8711C191.195 60.6211 190.773 60.2227 190.477 59.6758C190.18 59.1289 190.031 58.4102 190.031 57.5195V45.1914ZM203.719 48.3203V50.7109H196.336V48.3203H203.719ZM198.164 45.1914H201.539V57.1797C201.539 57.5469 201.586 57.8281 201.68 58.0234C201.781 58.2188 201.93 58.3555 202.125 58.4336C202.32 58.5039 202.566 58.5391 202.863 58.5391C203.074 58.5391 203.262 58.5312 203.426 58.5156C203.598 58.4922 203.742 58.4688 203.859 58.4453L203.871 60.9297C203.582 61.0234 203.27 61.0977 202.934 61.1523C202.598 61.207 202.227 61.2344 201.82 61.2344C201.078 61.2344 200.43 61.1133 199.875 60.8711C199.328 60.6211 198.906 60.2227 198.609 59.6758C198.312 59.1289 198.164 58.4102 198.164 57.5195V45.1914ZM209.203 43V61H205.816V43H209.203ZM217.828 61.2344C216.844 61.2344 215.961 61.0781 215.18 60.7656C214.398 60.4453 213.734 60.0039 213.188 59.4414C212.648 58.8789 212.234 58.2266 211.945 57.4844C211.656 56.7344 211.512 55.9375 211.512 55.0938V54.625C211.512 53.6641 211.648 52.7852 211.922 51.9883C212.195 51.1914 212.586 50.5 213.094 49.9141C213.609 49.3281 214.234 48.8789 214.969 48.5664C215.703 48.2461 216.531 48.0859 217.453 48.0859C218.352 48.0859 219.148 48.2344 219.844 48.5312C220.539 48.8281 221.121 49.25 221.59 49.7969C222.066 50.3438 222.426 51 222.668 51.7656C222.91 52.5234 223.031 53.3672 223.031 54.2969V55.7031H212.953V53.4531H219.715V53.1953C219.715 52.7266 219.629 52.3086 219.457 51.9414C219.293 51.5664 219.043 51.2695 218.707 51.0508C218.371 50.832 217.941 50.7227 217.418 50.7227C216.973 50.7227 216.59 50.8203 216.27 51.0156C215.949 51.2109 215.688 51.4844 215.484 51.8359C215.289 52.1875 215.141 52.6016 215.039 53.0781C214.945 53.5469 214.898 54.0625 214.898 54.625V55.0938C214.898 55.6016 214.969 56.0703 215.109 56.5C215.258 56.9297 215.465 57.3008 215.73 57.6133C216.004 57.9258 216.332 58.168 216.715 58.3398C217.105 58.5117 217.547 58.5977 218.039 58.5977C218.648 58.5977 219.215 58.4805 219.738 58.2461C220.27 58.0039 220.727 57.6406 221.109 57.1562L222.75 58.9375C222.484 59.3203 222.121 59.6875 221.66 60.0391C221.207 60.3906 220.66 60.6797 220.02 60.9062C219.379 61.125 218.648 61.2344 217.828 61.2344Z" fill="#888888"/>
<path d="M110.062 92.0469L101.742 119H92.9062L105.445 84.875H111.047L110.062 92.0469ZM116.953 119L108.609 92.0469L107.531 84.875H113.203L125.812 119H116.953ZM116.625 106.273V112.625H99.1172V106.273H116.625ZM135.258 115.906L142.055 84.875H146.109L148.312 87.5234L141.07 119H136.594L135.258 115.906ZM133.453 84.875L139.195 116.141L137.719 119H132.539L125.297 84.875H133.453ZM152.039 115.977L157.734 84.875H165.867L158.625 119H153.469L152.039 115.977ZM149.039 84.875L156 116.094L154.594 119H150.117L142.711 87.4766L145.008 84.875H149.039ZM186.68 109.93C186.68 109.398 186.602 108.922 186.445 108.5C186.289 108.062 186 107.656 185.578 107.281C185.156 106.906 184.547 106.531 183.75 106.156C182.969 105.766 181.938 105.359 180.656 104.938C179.156 104.438 177.711 103.875 176.32 103.25C174.93 102.609 173.688 101.867 172.594 101.023C171.5 100.164 170.633 99.1641 169.992 98.0234C169.352 96.8672 169.031 95.5234 169.031 93.9922C169.031 92.5234 169.359 91.2031 170.016 90.0312C170.672 88.8438 171.586 87.8359 172.758 87.0078C173.945 86.1641 175.336 85.5234 176.93 85.0859C178.523 84.6328 180.266 84.4062 182.156 84.4062C184.656 84.4062 186.859 84.8438 188.766 85.7188C190.688 86.5781 192.188 87.8047 193.266 89.3984C194.359 90.9766 194.906 92.8438 194.906 95H186.727C186.727 94.1406 186.547 93.3828 186.188 92.7266C185.844 92.0703 185.32 91.5547 184.617 91.1797C183.914 90.8047 183.031 90.6172 181.969 90.6172C180.938 90.6172 180.07 90.7734 179.367 91.0859C178.664 91.3984 178.133 91.8203 177.773 92.3516C177.414 92.8672 177.234 93.4375 177.234 94.0625C177.234 94.5781 177.375 95.0469 177.656 95.4688C177.953 95.875 178.367 96.2578 178.898 96.6172C179.445 96.9766 180.102 97.3203 180.867 97.6484C181.648 97.9766 182.523 98.2969 183.492 98.6094C185.305 99.1875 186.914 99.8359 188.32 100.555C189.742 101.258 190.938 102.062 191.906 102.969C192.891 103.859 193.633 104.875 194.133 106.016C194.648 107.156 194.906 108.445 194.906 109.883C194.906 111.414 194.609 112.773 194.016 113.961C193.422 115.148 192.57 116.156 191.461 116.984C190.352 117.797 189.023 118.414 187.477 118.836C185.93 119.258 184.203 119.469 182.297 119.469C180.547 119.469 178.82 119.25 177.117 118.812C175.43 118.359 173.898 117.672 172.523 116.75C171.148 115.812 170.047 114.617 169.219 113.164C168.406 111.695 168 109.953 168 107.938H176.25C176.25 108.938 176.383 109.781 176.648 110.469C176.914 111.156 177.305 111.711 177.82 112.133C178.336 112.539 178.969 112.836 179.719 113.023C180.469 113.195 181.328 113.281 182.297 113.281C183.344 113.281 184.188 113.133 184.828 112.836C185.469 112.523 185.938 112.117 186.234 111.617C186.531 111.102 186.68 110.539 186.68 109.93ZM222.188 119H214.617L214.664 112.672H222.188C223.75 112.672 225.07 112.297 226.148 111.547C227.242 110.797 228.07 109.68 228.633 108.195C229.211 106.695 229.5 104.852 229.5 102.664V101.188C229.5 99.5469 229.336 98.1094 229.008 96.875C228.695 95.625 228.227 94.5859 227.602 93.7578C226.977 92.9141 226.195 92.2812 225.258 91.8594C224.336 91.4375 223.273 91.2266 222.07 91.2266H214.477V84.875H222.07C224.383 84.875 226.5 85.2734 228.422 86.0703C230.359 86.8516 232.031 87.9766 233.438 89.4453C234.859 90.8984 235.953 92.625 236.719 94.625C237.5 96.6094 237.891 98.8125 237.891 101.234V102.664C237.891 105.07 237.5 107.273 236.719 109.273C235.953 111.273 234.867 113 233.461 114.453C232.055 115.906 230.391 117.031 228.469 117.828C226.562 118.609 224.469 119 222.188 119ZM219.328 84.875V119H211.102V84.875H219.328ZM254.086 119.469C252.023 119.469 250.18 119.148 248.555 118.508C246.93 117.852 245.555 116.953 244.43 115.812C243.32 114.672 242.469 113.359 241.875 111.875C241.297 110.391 241.008 108.82 241.008 107.164V106.273C241.008 104.414 241.266 102.695 241.781 101.117C242.297 99.5234 243.062 98.1328 244.078 96.9453C245.094 95.7578 246.367 94.8359 247.898 94.1797C249.43 93.5078 251.211 93.1719 253.242 93.1719C255.039 93.1719 256.648 93.4609 258.07 94.0391C259.492 94.6172 260.695 95.4453 261.68 96.5234C262.68 97.6016 263.438 98.9062 263.953 100.438C264.484 101.969 264.75 103.688 264.75 105.594V108.805H244.031V103.859H257.039V103.25C257.055 102.406 256.906 101.688 256.594 101.094C256.297 100.5 255.859 100.047 255.281 99.7344C254.703 99.4219 254 99.2656 253.172 99.2656C252.312 99.2656 251.602 99.4531 251.039 99.8281C250.492 100.203 250.062 100.719 249.75 101.375C249.453 102.016 249.242 102.758 249.117 103.602C248.992 104.445 248.93 105.336 248.93 106.273V107.164C248.93 108.102 249.055 108.953 249.305 109.719C249.57 110.484 249.945 111.141 250.43 111.688C250.93 112.219 251.523 112.633 252.211 112.93C252.914 113.227 253.711 113.375 254.602 113.375C255.68 113.375 256.742 113.172 257.789 112.766C258.836 112.359 259.734 111.688 260.484 110.75L264.07 115.016C263.555 115.75 262.82 116.461 261.867 117.148C260.93 117.836 259.805 118.398 258.492 118.836C257.18 119.258 255.711 119.469 254.086 119.469ZM275.93 98.5156V128.75H268.031V93.6406H275.391L275.93 98.5156ZM291.492 106.016V106.508C291.492 108.352 291.281 110.062 290.859 111.641C290.438 113.219 289.812 114.594 288.984 115.766C288.156 116.938 287.125 117.852 285.891 118.508C284.672 119.148 283.258 119.469 281.648 119.469C280.133 119.469 278.828 119.133 277.734 118.461C276.641 117.789 275.727 116.859 274.992 115.672C274.258 114.484 273.664 113.125 273.211 111.594C272.758 110.062 272.398 108.445 272.133 106.742V106.109C272.398 104.281 272.758 102.586 273.211 101.023C273.664 99.4453 274.258 98.0703 274.992 96.8984C275.727 95.7266 276.633 94.8125 277.711 94.1562C278.805 93.5 280.109 93.1719 281.625 93.1719C283.234 93.1719 284.648 93.4766 285.867 94.0859C287.102 94.6953 288.133 95.5703 288.961 96.7109C289.805 97.8359 290.438 99.1875 290.859 100.766C291.281 102.344 291.492 104.094 291.492 106.016ZM283.594 106.508V106.016C283.594 105.031 283.523 104.133 283.383 103.32C283.242 102.492 283.016 101.773 282.703 101.164C282.406 100.555 282.008 100.086 281.508 99.7578C281.008 99.4297 280.391 99.2656 279.656 99.2656C278.812 99.2656 278.102 99.3984 277.523 99.6641C276.961 99.9141 276.508 100.305 276.164 100.836C275.836 101.352 275.602 102 275.461 102.781C275.336 103.547 275.281 104.445 275.297 105.477V107.398C275.266 108.586 275.383 109.633 275.648 110.539C275.914 111.43 276.375 112.125 277.031 112.625C277.688 113.125 278.578 113.375 279.703 113.375C280.453 113.375 281.078 113.203 281.578 112.859C282.078 112.5 282.477 112.008 282.773 111.383C283.07 110.742 283.281 110.008 283.406 109.18C283.531 108.352 283.594 107.461 283.594 106.508ZM303.352 83V119H295.43V83H303.352ZM307.242 106.578V106.086C307.242 104.227 307.508 102.516 308.039 100.953C308.57 99.375 309.352 98.0078 310.383 96.8516C311.414 95.6953 312.688 94.7969 314.203 94.1562C315.719 93.5 317.469 93.1719 319.453 93.1719C321.453 93.1719 323.211 93.5 324.727 94.1562C326.258 94.7969 327.539 95.6953 328.57 96.8516C329.602 98.0078 330.383 99.375 330.914 100.953C331.445 102.516 331.711 104.227 331.711 106.086V106.578C331.711 108.422 331.445 110.133 330.914 111.711C330.383 113.273 329.602 114.641 328.57 115.812C327.539 116.969 326.266 117.867 324.75 118.508C323.234 119.148 321.484 119.469 319.5 119.469C317.516 119.469 315.758 119.148 314.227 118.508C312.695 117.867 311.414 116.969 310.383 115.812C309.352 114.641 308.57 113.273 308.039 111.711C307.508 110.133 307.242 108.422 307.242 106.578ZM315.141 106.086V106.578C315.141 107.531 315.211 108.422 315.352 109.25C315.492 110.078 315.727 110.805 316.055 111.43C316.383 112.039 316.828 112.516 317.391 112.859C317.953 113.203 318.656 113.375 319.5 113.375C320.328 113.375 321.016 113.203 321.562 112.859C322.125 112.516 322.57 112.039 322.898 111.43C323.227 110.805 323.461 110.078 323.602 109.25C323.742 108.422 323.812 107.531 323.812 106.578V106.086C323.812 105.164 323.742 104.297 323.602 103.484C323.461 102.656 323.227 101.93 322.898 101.305C322.57 100.664 322.125 100.164 321.562 99.8047C321 99.4453 320.297 99.2656 319.453 99.2656C318.625 99.2656 317.93 99.4453 317.367 99.8047C316.82 100.164 316.383 100.664 316.055 101.305C315.727 101.93 315.492 102.656 315.352 103.484C315.211 104.297 315.141 105.164 315.141 106.086ZM342.633 116.023L349.195 93.6406H357.68L347.484 122.773C347.266 123.414 346.977 124.102 346.617 124.836C346.258 125.586 345.766 126.297 345.141 126.969C344.516 127.641 343.711 128.188 342.727 128.609C341.758 129.031 340.555 129.242 339.117 129.242C338.352 129.242 337.789 129.203 337.43 129.125C337.086 129.062 336.555 128.945 335.836 128.773V123.125C336.039 123.125 336.211 123.125 336.352 123.125C336.508 123.125 336.68 123.125 336.867 123.125C337.711 123.125 338.383 123.039 338.883 122.867C339.398 122.695 339.789 122.445 340.055 122.117C340.336 121.789 340.555 121.391 340.711 120.922L342.633 116.023ZM340.969 93.6406L345.961 111.383L346.828 119.75H341.531L332.508 93.6406H340.969ZM367.711 99.0078V119H359.812V93.6406H367.219L367.711 99.0078ZM366.75 105.453L364.945 105.5C364.945 103.719 365.156 102.078 365.578 100.578C366 99.0781 366.625 97.7734 367.453 96.6641C368.281 95.5547 369.297 94.6953 370.5 94.0859C371.719 93.4766 373.125 93.1719 374.719 93.1719C375.828 93.1719 376.836 93.3438 377.742 93.6875C378.648 94.0156 379.43 94.5391 380.086 95.2578C380.742 95.9609 381.242 96.8828 381.586 98.0234C381.945 99.1484 382.125 100.5 382.125 102.078V119H374.227V103.086C374.227 102.008 374.102 101.195 373.852 100.648C373.617 100.102 373.273 99.7344 372.82 99.5469C372.367 99.3594 371.812 99.2656 371.156 99.2656C370.469 99.2656 369.852 99.4219 369.305 99.7344C368.758 100.047 368.289 100.484 367.898 101.047C367.523 101.594 367.234 102.242 367.031 102.992C366.844 103.742 366.75 104.562 366.75 105.453ZM381.234 105.453L379.031 105.5C379.031 103.719 379.227 102.078 379.617 100.578C380.023 99.0781 380.625 97.7734 381.422 96.6641C382.234 95.5547 383.242 94.6953 384.445 94.0859C385.648 93.4766 387.047 93.1719 388.641 93.1719C389.797 93.1719 390.859 93.3438 391.828 93.6875C392.797 94.0312 393.633 94.5859 394.336 95.3516C395.039 96.1172 395.586 97.1328 395.977 98.3984C396.367 99.6484 396.562 101.195 396.562 103.039V119H388.641V103.039C388.641 101.992 388.516 101.203 388.266 100.672C388.031 100.125 387.688 99.7578 387.234 99.5703C386.781 99.3672 386.242 99.2656 385.617 99.2656C384.867 99.2656 384.219 99.4219 383.672 99.7344C383.125 100.047 382.664 100.484 382.289 101.047C381.93 101.594 381.664 102.242 381.492 102.992C381.32 103.742 381.234 104.562 381.234 105.453ZM413.367 119.469C411.305 119.469 409.461 119.148 407.836 118.508C406.211 117.852 404.836 116.953 403.711 115.812C402.602 114.672 401.75 113.359 401.156 111.875C400.578 110.391 400.289 108.82 400.289 107.164V106.273C400.289 104.414 400.547 102.695 401.062 101.117C401.578 99.5234 402.344 98.1328 403.359 96.9453C404.375 95.7578 405.648 94.8359 407.18 94.1797C408.711 93.5078 410.492 93.1719 412.523 93.1719C414.32 93.1719 415.93 93.4609 417.352 94.0391C418.773 94.6172 419.977 95.4453 420.961 96.5234C421.961 97.6016 422.719 98.9062 423.234 100.438C423.766 101.969 424.031 103.688 424.031 105.594V108.805H403.312V103.859H416.32V103.25C416.336 102.406 416.188 101.688 415.875 101.094C415.578 100.5 415.141 100.047 414.562 99.7344C413.984 99.4219 413.281 99.2656 412.453 99.2656C411.594 99.2656 410.883 99.4531 410.32 99.8281C409.773 100.203 409.344 100.719 409.031 101.375C408.734 102.016 408.523 102.758 408.398 103.602C408.273 104.445 408.211 105.336 408.211 106.273V107.164C408.211 108.102 408.336 108.953 408.586 109.719C408.852 110.484 409.227 111.141 409.711 111.688C410.211 112.219 410.805 112.633 411.492 112.93C412.195 113.227 412.992 113.375 413.883 113.375C414.961 113.375 416.023 113.172 417.07 112.766C418.117 112.359 419.016 111.688 419.766 110.75L423.352 115.016C422.836 115.75 422.102 116.461 421.148 117.148C420.211 117.836 419.086 118.398 417.773 118.836C416.461 119.258 414.992 119.469 413.367 119.469ZM435 99.0547V119H427.102V93.6406H434.508L435 99.0547ZM434.062 105.453L432.211 105.5C432.211 103.562 432.445 101.836 432.914 100.32C433.383 98.7891 434.047 97.4922 434.906 96.4297C435.766 95.3672 436.789 94.5625 437.977 94.0156C439.18 93.4531 440.516 93.1719 441.984 93.1719C443.156 93.1719 444.227 93.3438 445.195 93.6875C446.18 94.0312 447.023 94.5859 447.727 95.3516C448.445 96.1172 448.992 97.1328 449.367 98.3984C449.758 99.6484 449.953 101.195 449.953 103.039V119H442.008V103.016C442.008 102 441.867 101.227 441.586 100.695C441.305 100.148 440.898 99.7734 440.367 99.5703C439.836 99.3672 439.188 99.2656 438.422 99.2656C437.609 99.2656 436.922 99.4219 436.359 99.7344C435.797 100.047 435.344 100.484 435 101.047C434.672 101.594 434.43 102.242 434.273 102.992C434.133 103.742 434.062 104.562 434.062 105.453ZM467.695 93.6406V99.125H452.414V93.6406H467.695ZM455.625 87.3359H463.523V110.727C463.523 111.398 463.602 111.922 463.758 112.297C463.914 112.656 464.18 112.914 464.555 113.07C464.945 113.211 465.461 113.281 466.102 113.281C466.555 113.281 466.93 113.273 467.227 113.258C467.523 113.227 467.805 113.188 468.07 113.141V118.789C467.398 119.008 466.695 119.172 465.961 119.281C465.227 119.406 464.445 119.469 463.617 119.469C461.93 119.469 460.484 119.203 459.281 118.672C458.094 118.141 457.188 117.305 456.562 116.164C455.938 115.023 455.625 113.539 455.625 111.711V87.3359Z" fill="black"/>
<path d="M1134 0H1348C1356.28 0 1363 6.71573 1363 15V148C1363 156.284 1356.28 163 1348 163H1134V0Z" fill="#00C354"/>
<path d="M1212.5 117.5L1212.5 45.5L1284.5 45.5L1284.5 117.5L1212.5 117.5Z" fill="white" fill-opacity="0.01"/>
<path d="M1221.5 81.5125L1221.5 108.5L1275.5 108.5L1275.5 81.5" stroke="white" stroke-width="7.24" stroke-linecap="round" stroke-linejoin="round"/>
<path d="M1262 68L1248.5 54.5L1235 68" stroke="white" stroke-width="7.24" stroke-linecap="round" stroke-linejoin="round"/>
<path d="M1248.49 93.5L1248.49 54.5" stroke="white" stroke-width="7.24" stroke-linecap="round" stroke-linejoin="round"/>
</svg>
