<svg width="1363" height="163" viewBox="0 0 1363 163" fill="none" xmlns="http://www.w3.org/2000/svg">
<path d="M0 15C0 6.71573 6.71573 0 15 0H37V163H15C6.71573 163 0 156.284 0 148V15Z" fill="#424242"/>
<rect width="1097" height="163" transform="translate(37)" fill="#F0F0F0"/>
<path d="M101.906 53.9219L94.3945 51.2383V48.0859L104.602 52.375V54.6367L101.906 53.9219ZM94.3945 56.1719L101.918 53.4297L104.602 52.7852V55.0352L94.3945 59.3242V56.1719ZM119.578 53.5117H115.195L115.172 51.0977H118.852C119.5 51.0977 120.031 51.0156 120.445 50.8516C120.859 50.6797 121.168 50.4336 121.371 50.1133C121.582 49.7852 121.688 49.3867 121.688 48.918C121.688 48.3867 121.586 47.957 121.383 47.6289C121.188 47.3008 120.879 47.0625 120.457 46.9141C120.043 46.7656 119.508 46.6914 118.852 46.6914H116.414V61H112.898V43.9375H118.852C119.844 43.9375 120.73 44.0312 121.512 44.2188C122.301 44.4062 122.969 44.6914 123.516 45.0742C124.062 45.457 124.48 45.9414 124.77 46.5273C125.059 47.1055 125.203 47.793 125.203 48.5898C125.203 49.293 125.043 49.9414 124.723 50.5352C124.41 51.1289 123.914 51.6133 123.234 51.9883C122.562 52.3633 121.684 52.5703 120.598 52.6094L119.578 53.5117ZM119.426 61H114.234L115.605 58.2578H119.426C120.043 58.2578 120.547 58.1602 120.938 57.9648C121.328 57.7617 121.617 57.4883 121.805 57.1445C121.992 56.8008 122.086 56.4062 122.086 55.9609C122.086 55.4609 122 55.0273 121.828 54.6602C121.664 54.293 121.398 54.0117 121.031 53.8164C120.664 53.6133 120.18 53.5117 119.578 53.5117H116.191L116.215 51.0977H120.434L121.242 52.0469C122.281 52.0312 123.117 52.2148 123.75 52.5977C124.391 52.9727 124.855 53.4609 125.145 54.0625C125.441 54.6641 125.59 55.3086 125.59 55.9961C125.59 57.0898 125.352 58.0117 124.875 58.7617C124.398 59.5039 123.699 60.0625 122.777 60.4375C121.863 60.8125 120.746 61 119.426 61ZM131.777 59.5703L135.141 48.3203H138.762L133.664 62.9102C133.555 63.2305 133.406 63.5742 133.219 63.9414C133.039 64.3086 132.793 64.6562 132.48 64.9844C132.176 65.3203 131.789 65.5938 131.32 65.8047C130.859 66.0156 130.293 66.1211 129.621 66.1211C129.301 66.1211 129.039 66.1016 128.836 66.0625C128.633 66.0234 128.391 65.9688 128.109 65.8984V63.4258C128.195 63.4258 128.285 63.4258 128.379 63.4258C128.473 63.4336 128.562 63.4375 128.648 63.4375C129.094 63.4375 129.457 63.3867 129.738 63.2852C130.02 63.1836 130.246 63.0273 130.418 62.8164C130.59 62.6133 130.727 62.3477 130.828 62.0195L131.777 59.5703ZM130.371 48.3203L133.125 57.5078L133.605 61.082L131.309 61.3281L126.75 48.3203H130.371ZM146.32 48.3203V50.7109H138.938V48.3203H146.32ZM140.766 45.1914H144.141V57.1797C144.141 57.5469 144.188 57.8281 144.281 58.0234C144.383 58.2188 144.531 58.3555 144.727 58.4336C144.922 58.5039 145.168 58.5391 145.465 58.5391C145.676 58.5391 145.863 58.5312 146.027 58.5156C146.199 58.4922 146.344 58.4688 146.461 58.4453L146.473 60.9297C146.184 61.0234 145.871 61.0977 145.535 61.1523C145.199 61.207 144.828 61.2344 144.422 61.2344C143.68 61.2344 143.031 61.1133 142.477 60.8711C141.93 60.6211 141.508 60.2227 141.211 59.6758C140.914 59.1289 140.766 58.4102 140.766 57.5195V45.1914ZM154.078 61.2344C153.094 61.2344 152.211 61.0781 151.43 60.7656C150.648 60.4453 149.984 60.0039 149.438 59.4414C148.898 58.8789 148.484 58.2266 148.195 57.4844C147.906 56.7344 147.762 55.9375 147.762 55.0938V54.625C147.762 53.6641 147.898 52.7852 148.172 51.9883C148.445 51.1914 148.836 50.5 149.344 49.9141C149.859 49.3281 150.484 48.8789 151.219 48.5664C151.953 48.2461 152.781 48.0859 153.703 48.0859C154.602 48.0859 155.398 48.2344 156.094 48.5312C156.789 48.8281 157.371 49.25 157.84 49.7969C158.316 50.3438 158.676 51 158.918 51.7656C159.16 52.5234 159.281 53.3672 159.281 54.2969V55.7031H149.203V53.4531H155.965V53.1953C155.965 52.7266 155.879 52.3086 155.707 51.9414C155.543 51.5664 155.293 51.2695 154.957 51.0508C154.621 50.832 154.191 50.7227 153.668 50.7227C153.223 50.7227 152.84 50.8203 152.52 51.0156C152.199 51.2109 151.938 51.4844 151.734 51.8359C151.539 52.1875 151.391 52.6016 151.289 53.0781C151.195 53.5469 151.148 54.0625 151.148 54.625V55.0938C151.148 55.6016 151.219 56.0703 151.359 56.5C151.508 56.9297 151.715 57.3008 151.98 57.6133C152.254 57.9258 152.582 58.168 152.965 58.3398C153.355 58.5117 153.797 58.5977 154.289 58.5977C154.898 58.5977 155.465 58.4805 155.988 58.2461C156.52 58.0039 156.977 57.6406 157.359 57.1562L159 58.9375C158.734 59.3203 158.371 59.6875 157.91 60.0391C157.457 60.3906 156.91 60.6797 156.27 60.9062C155.629 61.125 154.898 61.2344 154.078 61.2344ZM168.094 53.5117H163.711L163.688 51.0977H167.367C168.016 51.0977 168.547 51.0156 168.961 50.8516C169.375 50.6797 169.684 50.4336 169.887 50.1133C170.098 49.7852 170.203 49.3867 170.203 48.918C170.203 48.3867 170.102 47.957 169.898 47.6289C169.703 47.3008 169.395 47.0625 168.973 46.9141C168.559 46.7656 168.023 46.6914 167.367 46.6914H164.93V61H161.414V43.9375H167.367C168.359 43.9375 169.246 44.0312 170.027 44.2188C170.816 44.4062 171.484 44.6914 172.031 45.0742C172.578 45.457 172.996 45.9414 173.285 46.5273C173.574 47.1055 173.719 47.793 173.719 48.5898C173.719 49.293 173.559 49.9414 173.238 50.5352C172.926 51.1289 172.43 51.6133 171.75 51.9883C171.078 52.3633 170.199 52.5703 169.113 52.6094L168.094 53.5117ZM167.941 61H162.75L164.121 58.2578H167.941C168.559 58.2578 169.062 58.1602 169.453 57.9648C169.844 57.7617 170.133 57.4883 170.32 57.1445C170.508 56.8008 170.602 56.4062 170.602 55.9609C170.602 55.4609 170.516 55.0273 170.344 54.6602C170.18 54.293 169.914 54.0117 169.547 53.8164C169.18 53.6133 168.695 53.5117 168.094 53.5117H164.707L164.73 51.0977H168.949L169.758 52.0469C170.797 52.0312 171.633 52.2148 172.266 52.5977C172.906 52.9727 173.371 53.4609 173.66 54.0625C173.957 54.6641 174.105 55.3086 174.105 55.9961C174.105 57.0898 173.867 58.0117 173.391 58.7617C172.914 59.5039 172.215 60.0625 171.293 60.4375C170.379 60.8125 169.262 61 167.941 61ZM183.375 58.1406V52.4922C183.375 52.0859 183.309 51.7383 183.176 51.4492C183.043 51.1523 182.836 50.9219 182.555 50.7578C182.281 50.5938 181.926 50.5117 181.488 50.5117C181.113 50.5117 180.789 50.5781 180.516 50.7109C180.242 50.8359 180.031 51.0195 179.883 51.2617C179.734 51.4961 179.66 51.7734 179.66 52.0938H176.285C176.285 51.5547 176.41 51.043 176.66 50.5586C176.91 50.0742 177.273 49.6484 177.75 49.2812C178.227 48.9062 178.793 48.6133 179.449 48.4023C180.113 48.1914 180.855 48.0859 181.676 48.0859C182.66 48.0859 183.535 48.25 184.301 48.5781C185.066 48.9062 185.668 49.3984 186.105 50.0547C186.551 50.7109 186.773 51.5312 186.773 52.5156V57.9414C186.773 58.6367 186.816 59.207 186.902 59.6523C186.988 60.0898 187.113 60.4727 187.277 60.8008V61H183.867C183.703 60.6562 183.578 60.2266 183.492 59.7109C183.414 59.1875 183.375 58.6641 183.375 58.1406ZM183.82 53.2773L183.844 55.1875H181.957C181.512 55.1875 181.125 55.2383 180.797 55.3398C180.469 55.4414 180.199 55.5859 179.988 55.7734C179.777 55.9531 179.621 56.1641 179.52 56.4062C179.426 56.6484 179.379 56.9141 179.379 57.2031C179.379 57.4922 179.445 57.7539 179.578 57.9883C179.711 58.2148 179.902 58.3945 180.152 58.5273C180.402 58.6523 180.695 58.7148 181.031 58.7148C181.539 58.7148 181.98 58.6133 182.355 58.4102C182.73 58.207 183.02 57.957 183.223 57.6602C183.434 57.3633 183.543 57.082 183.551 56.8164L184.441 58.2461C184.316 58.5664 184.145 58.8984 183.926 59.2422C183.715 59.5859 183.445 59.9102 183.117 60.2148C182.789 60.5117 182.395 60.7578 181.934 60.9531C181.473 61.1406 180.926 61.2344 180.293 61.2344C179.488 61.2344 178.758 61.0742 178.102 60.7539C177.453 60.4258 176.938 59.9766 176.555 59.4062C176.18 58.8281 175.992 58.1719 175.992 57.4375C175.992 56.7734 176.117 56.1836 176.367 55.668C176.617 55.1523 176.984 54.7188 177.469 54.3672C177.961 54.0078 178.574 53.7383 179.309 53.5586C180.043 53.3711 180.895 53.2773 181.863 53.2773H183.82ZM195.586 48.3203V50.7109H188.203V48.3203H195.586ZM190.031 45.1914H193.406V57.1797C193.406 57.5469 193.453 57.8281 193.547 58.0234C193.648 58.2188 193.797 58.3555 193.992 58.4336C194.188 58.5039 194.434 58.5391 194.73 58.5391C194.941 58.5391 195.129 58.5312 195.293 58.5156C195.465 58.4922 195.609 58.4688 195.727 58.4453L195.738 60.9297C195.449 61.0234 195.137 61.0977 194.801 61.1523C194.465 61.207 194.094 61.2344 193.688 61.2344C192.945 61.2344 192.297 61.1133 191.742 60.8711C191.195 60.6211 190.773 60.2227 190.477 59.6758C190.18 59.1289 190.031 58.4102 190.031 57.5195V45.1914ZM203.719 48.3203V50.7109H196.336V48.3203H203.719ZM198.164 45.1914H201.539V57.1797C201.539 57.5469 201.586 57.8281 201.68 58.0234C201.781 58.2188 201.93 58.3555 202.125 58.4336C202.32 58.5039 202.566 58.5391 202.863 58.5391C203.074 58.5391 203.262 58.5312 203.426 58.5156C203.598 58.4922 203.742 58.4688 203.859 58.4453L203.871 60.9297C203.582 61.0234 203.27 61.0977 202.934 61.1523C202.598 61.207 202.227 61.2344 201.82 61.2344C201.078 61.2344 200.43 61.1133 199.875 60.8711C199.328 60.6211 198.906 60.2227 198.609 59.6758C198.312 59.1289 198.164 58.4102 198.164 57.5195V45.1914ZM209.203 43V61H205.816V43H209.203ZM217.828 61.2344C216.844 61.2344 215.961 61.0781 215.18 60.7656C214.398 60.4453 213.734 60.0039 213.188 59.4414C212.648 58.8789 212.234 58.2266 211.945 57.4844C211.656 56.7344 211.512 55.9375 211.512 55.0938V54.625C211.512 53.6641 211.648 52.7852 211.922 51.9883C212.195 51.1914 212.586 50.5 213.094 49.9141C213.609 49.3281 214.234 48.8789 214.969 48.5664C215.703 48.2461 216.531 48.0859 217.453 48.0859C218.352 48.0859 219.148 48.2344 219.844 48.5312C220.539 48.8281 221.121 49.25 221.59 49.7969C222.066 50.3438 222.426 51 222.668 51.7656C222.91 52.5234 223.031 53.3672 223.031 54.2969V55.7031H212.953V53.4531H219.715V53.1953C219.715 52.7266 219.629 52.3086 219.457 51.9414C219.293 51.5664 219.043 51.2695 218.707 51.0508C218.371 50.832 217.941 50.7227 217.418 50.7227C216.973 50.7227 216.59 50.8203 216.27 51.0156C215.949 51.2109 215.688 51.4844 215.484 51.8359C215.289 52.1875 215.141 52.6016 215.039 53.0781C214.945 53.5469 214.898 54.0625 214.898 54.625V55.0938C214.898 55.6016 214.969 56.0703 215.109 56.5C215.258 56.9297 215.465 57.3008 215.73 57.6133C216.004 57.9258 216.332 58.168 216.715 58.3398C217.105 58.5117 217.547 58.5977 218.039 58.5977C218.648 58.5977 219.215 58.4805 219.738 58.2461C220.27 58.0039 220.727 57.6406 221.109 57.1562L222.75 58.9375C222.484 59.3203 222.121 59.6875 221.66 60.0391C221.207 60.3906 220.66 60.6797 220.02 60.9062C219.379 61.125 218.648 61.2344 217.828 61.2344Z" fill="#888888"/>
<path d="M118.594 98.4219V104.75H101.086V98.4219H118.594ZM103.828 84.875V119H95.6016V84.875H103.828ZM124.125 84.875V119H115.922V84.875H124.125ZM127.992 106.578V106.086C127.992 104.227 128.258 102.516 128.789 100.953C129.32 99.375 130.102 98.0078 131.133 96.8516C132.164 95.6953 133.438 94.7969 134.953 94.1562C136.469 93.5 138.219 93.1719 140.203 93.1719C142.203 93.1719 143.961 93.5 145.477 94.1562C147.008 94.7969 148.289 95.6953 149.32 96.8516C150.352 98.0078 151.133 99.375 151.664 100.953C152.195 102.516 152.461 104.227 152.461 106.086V106.578C152.461 108.422 152.195 110.133 151.664 111.711C151.133 113.273 150.352 114.641 149.32 115.812C148.289 116.969 147.016 117.867 145.5 118.508C143.984 119.148 142.234 119.469 140.25 119.469C138.266 119.469 136.508 119.148 134.977 118.508C133.445 117.867 132.164 116.969 131.133 115.812C130.102 114.641 129.32 113.273 128.789 111.711C128.258 110.133 127.992 108.422 127.992 106.578ZM135.891 106.086V106.578C135.891 107.531 135.961 108.422 136.102 109.25C136.242 110.078 136.477 110.805 136.805 111.43C137.133 112.039 137.578 112.516 138.141 112.859C138.703 113.203 139.406 113.375 140.25 113.375C141.078 113.375 141.766 113.203 142.312 112.859C142.875 112.516 143.32 112.039 143.648 111.43C143.977 110.805 144.211 110.078 144.352 109.25C144.492 108.422 144.562 107.531 144.562 106.578V106.086C144.562 105.164 144.492 104.297 144.352 103.484C144.211 102.656 143.977 101.93 143.648 101.305C143.32 100.664 142.875 100.164 142.312 99.8047C141.75 99.4453 141.047 99.2656 140.203 99.2656C139.375 99.2656 138.68 99.4453 138.117 99.8047C137.57 100.164 137.133 100.664 136.805 101.305C136.477 101.93 136.242 102.656 136.102 103.484C135.961 104.297 135.891 105.164 135.891 106.086ZM163.688 111.453L168.375 93.6406H173.32L171.562 102.57L166.922 119H162.961L163.688 111.453ZM161.836 93.6406L164.742 111.312L165.07 119H160.266L154.266 93.6406H161.836ZM177.492 110.938L180.422 93.6406H187.992L182.039 119H177.234L177.492 110.938ZM173.883 93.6406L178.617 111.406L179.344 119H175.336L170.789 102.617L169.102 93.6406H173.883ZM218.297 84.875V119H210.07V84.875H218.297ZM228.562 84.875V91.2266H200.039V84.875H228.562ZM225.773 106.578V106.086C225.773 104.227 226.039 102.516 226.57 100.953C227.102 99.375 227.883 98.0078 228.914 96.8516C229.945 95.6953 231.219 94.7969 232.734 94.1562C234.25 93.5 236 93.1719 237.984 93.1719C239.984 93.1719 241.742 93.5 243.258 94.1562C244.789 94.7969 246.07 95.6953 247.102 96.8516C248.133 98.0078 248.914 99.375 249.445 100.953C249.977 102.516 250.242 104.227 250.242 106.086V106.578C250.242 108.422 249.977 110.133 249.445 111.711C248.914 113.273 248.133 114.641 247.102 115.812C246.07 116.969 244.797 117.867 243.281 118.508C241.766 119.148 240.016 119.469 238.031 119.469C236.047 119.469 234.289 119.148 232.758 118.508C231.227 117.867 229.945 116.969 228.914 115.812C227.883 114.641 227.102 113.273 226.57 111.711C226.039 110.133 225.773 108.422 225.773 106.578ZM233.672 106.086V106.578C233.672 107.531 233.742 108.422 233.883 109.25C234.023 110.078 234.258 110.805 234.586 111.43C234.914 112.039 235.359 112.516 235.922 112.859C236.484 113.203 237.188 113.375 238.031 113.375C238.859 113.375 239.547 113.203 240.094 112.859C240.656 112.516 241.102 112.039 241.43 111.43C241.758 110.805 241.992 110.078 242.133 109.25C242.273 108.422 242.344 107.531 242.344 106.578V106.086C242.344 105.164 242.273 104.297 242.133 103.484C241.992 102.656 241.758 101.93 241.43 101.305C241.102 100.664 240.656 100.164 240.094 99.8047C239.531 99.4453 238.828 99.2656 237.984 99.2656C237.156 99.2656 236.461 99.4453 235.898 99.8047C235.352 100.164 234.914 100.664 234.586 101.305C234.258 101.93 234.023 102.656 233.883 103.484C233.742 104.297 233.672 105.164 233.672 106.086ZM266.086 84.875H279.516C282.141 84.875 284.422 85.2656 286.359 86.0469C288.297 86.8281 289.789 87.9844 290.836 89.5156C291.898 91.0469 292.43 92.9375 292.43 95.1875C292.43 97.1406 292.125 98.7734 291.516 100.086C290.906 101.398 290.055 102.484 288.961 103.344C287.883 104.188 286.625 104.883 285.188 105.43L282.492 106.953H271.219L271.172 100.602H279.516C280.562 100.602 281.43 100.414 282.117 100.039C282.805 99.6641 283.32 99.1328 283.664 98.4453C284.023 97.7422 284.203 96.9062 284.203 95.9375C284.203 94.9531 284.023 94.1094 283.664 93.4062C283.305 92.7031 282.773 92.1641 282.07 91.7891C281.383 91.4141 280.531 91.2266 279.516 91.2266H274.312V119H266.086V84.875ZM284.766 119L277.219 103.906L285.938 103.859L293.578 118.648V119H284.766ZM311.836 112.836V93.6406H319.758V119H312.352L311.836 112.836ZM312.586 107.68L314.648 107.633C314.648 109.336 314.445 110.914 314.039 112.367C313.633 113.805 313.031 115.055 312.234 116.117C311.453 117.18 310.484 118.008 309.328 118.602C308.188 119.18 306.867 119.469 305.367 119.469C304.117 119.469 302.969 119.297 301.922 118.953C300.891 118.594 300 118.039 299.25 117.289C298.5 116.523 297.914 115.547 297.492 114.359C297.086 113.156 296.883 111.719 296.883 110.047V93.6406H304.781V110.094C304.781 110.656 304.852 111.141 304.992 111.547C305.133 111.953 305.336 112.297 305.602 112.578C305.867 112.844 306.195 113.047 306.586 113.188C306.992 113.312 307.453 113.375 307.969 113.375C309.156 113.375 310.086 113.125 310.758 112.625C311.43 112.125 311.898 111.445 312.164 110.586C312.445 109.727 312.586 108.758 312.586 107.68ZM331.875 99.0547V119H323.977V93.6406H331.383L331.875 99.0547ZM330.938 105.453L329.086 105.5C329.086 103.562 329.32 101.836 329.789 100.32C330.258 98.7891 330.922 97.4922 331.781 96.4297C332.641 95.3672 333.664 94.5625 334.852 94.0156C336.055 93.4531 337.391 93.1719 338.859 93.1719C340.031 93.1719 341.102 93.3438 342.07 93.6875C343.055 94.0312 343.898 94.5859 344.602 95.3516C345.32 96.1172 345.867 97.1328 346.242 98.3984C346.633 99.6484 346.828 101.195 346.828 103.039V119H338.883V103.016C338.883 102 338.742 101.227 338.461 100.695C338.18 100.148 337.773 99.7734 337.242 99.5703C336.711 99.3672 336.062 99.2656 335.297 99.2656C334.484 99.2656 333.797 99.4219 333.234 99.7344C332.672 100.047 332.219 100.484 331.875 101.047C331.547 101.594 331.305 102.242 331.148 102.992C331.008 103.742 330.938 104.562 330.938 105.453ZM363.773 108.195H357.047C357.047 106.82 357.141 105.609 357.328 104.562C357.531 103.5 357.875 102.547 358.359 101.703C358.844 100.859 359.5 100.078 360.328 99.3594C361.062 98.75 361.695 98.1641 362.227 97.6016C362.758 97.0391 363.164 96.4688 363.445 95.8906C363.727 95.3125 363.867 94.6953 363.867 94.0391C363.867 93.2266 363.75 92.5625 363.516 92.0469C363.297 91.5312 362.961 91.1484 362.508 90.8984C362.07 90.6328 361.516 90.5 360.844 90.5C360.297 90.5 359.781 90.6328 359.297 90.8984C358.828 91.1641 358.445 91.5781 358.148 92.1406C357.852 92.6875 357.688 93.4141 357.656 94.3203H349.711C349.758 91.9922 350.273 90.1016 351.258 88.6484C352.258 87.1797 353.586 86.1094 355.242 85.4375C356.914 84.75 358.781 84.4062 360.844 84.4062C363.125 84.4062 365.086 84.7578 366.727 85.4609C368.367 86.1641 369.625 87.2109 370.5 88.6016C371.375 89.9766 371.812 91.6719 371.812 93.6875C371.812 95.0312 371.555 96.2031 371.039 97.2031C370.539 98.1875 369.859 99.1094 369 99.9688C368.156 100.812 367.211 101.719 366.164 102.688C365.258 103.484 364.641 104.297 364.312 105.125C363.984 105.938 363.805 106.961 363.773 108.195ZM356.086 115.32C356.086 114.195 356.492 113.258 357.305 112.508C358.117 111.742 359.172 111.359 360.469 111.359C361.766 111.359 362.82 111.742 363.633 112.508C364.445 113.258 364.852 114.195 364.852 115.32C364.852 116.445 364.445 117.391 363.633 118.156C362.82 118.906 361.766 119.281 360.469 119.281C359.172 119.281 358.117 118.906 357.305 118.156C356.492 117.391 356.086 116.445 356.086 115.32Z" fill="black"/>
<path d="M1134 0H1348C1356.28 0 1363 6.71573 1363 15V148C1363 156.284 1356.28 163 1348 163H1134V0Z" fill="#00C354"/>
<path d="M1260.62 78.8847C1263.81 78.8847 1266.93 79.805 1269.59 81.5293C1272.25 83.2536 1274.32 85.7044 1275.54 88.5718C1276.76 91.4391 1277.08 94.5943 1276.46 97.6383C1275.84 100.682 1274.3 103.478 1272.04 105.673C1269.78 107.868 1266.9 109.362 1263.77 109.968C1260.63 110.573 1257.39 110.262 1254.43 109.075C1251.48 107.887 1248.96 105.876 1247.18 103.295C1245.41 100.714 1244.46 97.6806 1244.46 94.5769C1244.46 90.4151 1246.16 86.4237 1249.19 83.4808C1252.22 80.538 1256.33 78.8847 1260.62 78.8847ZM1260.62 73.6539C1256.36 73.6539 1252.19 74.881 1248.65 77.1801C1245.11 79.4791 1242.35 82.7469 1240.72 86.57C1239.09 90.3932 1238.66 94.6001 1239.49 98.6588C1240.32 102.717 1242.37 106.446 1245.39 109.372C1248.4 112.298 1252.24 114.291 1256.41 115.098C1260.59 115.905 1264.92 115.491 1268.86 113.907C1272.79 112.324 1276.16 109.642 1278.52 106.201C1280.89 102.76 1282.15 98.7151 1282.15 94.5769C1282.15 89.0278 1279.88 83.706 1275.85 79.7821C1271.81 75.8583 1266.33 73.6539 1260.62 73.6539Z" fill="white"/>
<path d="M1274.08 47.5H1220.23C1218.8 47.5 1217.43 48.0511 1216.42 49.0321C1215.41 50.013 1214.85 51.3435 1214.85 52.7307V105.038C1214.85 106.426 1215.41 107.756 1216.42 108.737C1217.43 109.718 1218.8 110.269 1220.23 110.269H1231V105.038H1220.23V68.423H1279.46V52.7307C1279.46 51.3435 1278.89 50.013 1277.88 49.0321C1276.87 48.0511 1275.5 47.5 1274.08 47.5ZM1220.23 63.1922V52.7307H1274.08V63.1922H1220.23Z" fill="white"/>
<path d="M1255.23 86.731V102.423L1268.69 94.5771L1255.23 86.731Z" fill="white"/>
</svg>
