<svg width="1363" height="163" viewBox="0 0 1363 163" fill="none" xmlns="http://www.w3.org/2000/svg">
<path d="M0 15C0 6.71573 6.71573 0 15 0H37V163H15C6.71573 163 0 156.284 0 148V15Z" fill="#424242"/>
<rect width="1097" height="163" transform="translate(37)" fill="#F0F0F0"/>
<path d="M101.906 53.9219L94.3945 51.2383V48.0859L104.602 52.375V54.6367L101.906 53.9219ZM94.3945 56.1719L101.918 53.4297L104.602 52.7852V55.0352L94.3945 59.3242V56.1719ZM119.438 53.0195H115.113L115.09 51.2031H119.016C119.664 51.2031 120.23 51.0938 120.715 50.875C121.199 50.6562 121.574 50.3438 121.84 49.9375C122.113 49.5234 122.25 49.0312 122.25 48.4609C122.25 47.8359 122.129 47.3281 121.887 46.9375C121.652 46.5391 121.289 46.25 120.797 46.0703C120.312 45.8828 119.695 45.7891 118.945 45.7891H115.617V61H113.355V43.9375H118.945C119.82 43.9375 120.602 44.0273 121.289 44.207C121.977 44.3789 122.559 44.6523 123.035 45.0273C123.52 45.3945 123.887 45.8633 124.137 46.4336C124.387 47.0039 124.512 47.6875 124.512 48.4844C124.512 49.1875 124.332 49.8242 123.973 50.3945C123.613 50.957 123.113 51.418 122.473 51.7773C121.84 52.1367 121.098 52.3672 120.246 52.4688L119.438 53.0195ZM119.332 61H114.223L115.5 59.1602H119.332C120.051 59.1602 120.66 59.0352 121.16 58.7852C121.668 58.5352 122.055 58.1836 122.32 57.7305C122.586 57.2695 122.719 56.7266 122.719 56.1016C122.719 55.4688 122.605 54.9219 122.379 54.4609C122.152 54 121.797 53.6445 121.312 53.3945C120.828 53.1445 120.203 53.0195 119.438 53.0195H116.215L116.238 51.2031H120.645L121.125 51.8594C121.945 51.9297 122.641 52.1641 123.211 52.5625C123.781 52.9531 124.215 53.4531 124.512 54.0625C124.816 54.6719 124.969 55.3438 124.969 56.0781C124.969 57.1406 124.734 58.0391 124.266 58.7734C123.805 59.5 123.152 60.0547 122.309 60.4375C121.465 60.8125 120.473 61 119.332 61ZM131.543 59.6875L135.07 48.3203H137.391L132.305 62.957C132.188 63.2695 132.031 63.6055 131.836 63.9648C131.648 64.332 131.406 64.6797 131.109 65.0078C130.812 65.3359 130.453 65.6016 130.031 65.8047C129.617 66.0156 129.121 66.1211 128.543 66.1211C128.371 66.1211 128.152 66.0977 127.887 66.0508C127.621 66.0039 127.434 65.9648 127.324 65.9336L127.312 64.1758C127.375 64.1836 127.473 64.1914 127.605 64.1992C127.746 64.2148 127.844 64.2227 127.898 64.2227C128.391 64.2227 128.809 64.1562 129.152 64.0234C129.496 63.8984 129.785 63.6836 130.02 63.3789C130.262 63.082 130.469 62.6719 130.641 62.1484L131.543 59.6875ZM128.953 48.3203L132.246 58.1641L132.809 60.4492L131.25 61.2461L126.586 48.3203H128.953ZM144.656 48.3203V49.9844H137.801V48.3203H144.656ZM140.121 45.2383H142.289V57.8594C142.289 58.2891 142.355 58.6133 142.488 58.832C142.621 59.0508 142.793 59.1953 143.004 59.2656C143.215 59.3359 143.441 59.3711 143.684 59.3711C143.863 59.3711 144.051 59.3555 144.246 59.3242C144.449 59.2852 144.602 59.2539 144.703 59.2305L144.715 61C144.543 61.0547 144.316 61.1055 144.035 61.1523C143.762 61.207 143.43 61.2344 143.039 61.2344C142.508 61.2344 142.02 61.1289 141.574 60.918C141.129 60.707 140.773 60.3555 140.508 59.8633C140.25 59.3633 140.121 58.6914 140.121 57.8477V45.2383ZM152.461 61.2344C151.578 61.2344 150.777 61.0859 150.059 60.7891C149.348 60.4844 148.734 60.0586 148.219 59.5117C147.711 58.9648 147.32 58.3164 147.047 57.5664C146.773 56.8164 146.637 55.9961 146.637 55.1055V54.6133C146.637 53.582 146.789 52.6641 147.094 51.8594C147.398 51.0469 147.812 50.3594 148.336 49.7969C148.859 49.2344 149.453 48.8086 150.117 48.5195C150.781 48.2305 151.469 48.0859 152.18 48.0859C153.086 48.0859 153.867 48.2422 154.523 48.5547C155.188 48.8672 155.73 49.3047 156.152 49.8672C156.574 50.4219 156.887 51.0781 157.09 51.8359C157.293 52.5859 157.395 53.4062 157.395 54.2969V55.2695H147.926V53.5H155.227V53.3359C155.195 52.7734 155.078 52.2266 154.875 51.6953C154.68 51.1641 154.367 50.7266 153.938 50.3828C153.508 50.0391 152.922 49.8672 152.18 49.8672C151.688 49.8672 151.234 49.9727 150.82 50.1836C150.406 50.3867 150.051 50.6914 149.754 51.0977C149.457 51.5039 149.227 52 149.062 52.5859C148.898 53.1719 148.816 53.8477 148.816 54.6133V55.1055C148.816 55.707 148.898 56.2734 149.062 56.8047C149.234 57.3281 149.48 57.7891 149.801 58.1875C150.129 58.5859 150.523 58.8984 150.984 59.125C151.453 59.3516 151.984 59.4648 152.578 59.4648C153.344 59.4648 153.992 59.3086 154.523 58.9961C155.055 58.6836 155.52 58.2656 155.918 57.7422L157.23 58.7852C156.957 59.1992 156.609 59.5938 156.188 59.9688C155.766 60.3438 155.246 60.6484 154.629 60.8828C154.02 61.1172 153.297 61.2344 152.461 61.2344ZM166.336 53.0195H162.012L161.988 51.2031H165.914C166.562 51.2031 167.129 51.0938 167.613 50.875C168.098 50.6562 168.473 50.3438 168.738 49.9375C169.012 49.5234 169.148 49.0312 169.148 48.4609C169.148 47.8359 169.027 47.3281 168.785 46.9375C168.551 46.5391 168.188 46.25 167.695 46.0703C167.211 45.8828 166.594 45.7891 165.844 45.7891H162.516V61H160.254V43.9375H165.844C166.719 43.9375 167.5 44.0273 168.188 44.207C168.875 44.3789 169.457 44.6523 169.934 45.0273C170.418 45.3945 170.785 45.8633 171.035 46.4336C171.285 47.0039 171.41 47.6875 171.41 48.4844C171.41 49.1875 171.23 49.8242 170.871 50.3945C170.512 50.957 170.012 51.418 169.371 51.7773C168.738 52.1367 167.996 52.3672 167.145 52.4688L166.336 53.0195ZM166.23 61H161.121L162.398 59.1602H166.23C166.949 59.1602 167.559 59.0352 168.059 58.7852C168.566 58.5352 168.953 58.1836 169.219 57.7305C169.484 57.2695 169.617 56.7266 169.617 56.1016C169.617 55.4688 169.504 54.9219 169.277 54.4609C169.051 54 168.695 53.6445 168.211 53.3945C167.727 53.1445 167.102 53.0195 166.336 53.0195H163.113L163.137 51.2031H167.543L168.023 51.8594C168.844 51.9297 169.539 52.1641 170.109 52.5625C170.68 52.9531 171.113 53.4531 171.41 54.0625C171.715 54.6719 171.867 55.3438 171.867 56.0781C171.867 57.1406 171.633 58.0391 171.164 58.7734C170.703 59.5 170.051 60.0547 169.207 60.4375C168.363 60.8125 167.371 61 166.23 61ZM182.355 58.832V52.3047C182.355 51.8047 182.254 51.3711 182.051 51.0039C181.855 50.6289 181.559 50.3398 181.16 50.1367C180.762 49.9336 180.27 49.832 179.684 49.832C179.137 49.832 178.656 49.9258 178.242 50.1133C177.836 50.3008 177.516 50.5469 177.281 50.8516C177.055 51.1562 176.941 51.4844 176.941 51.8359H174.773C174.773 51.3828 174.891 50.9336 175.125 50.4883C175.359 50.043 175.695 49.6406 176.133 49.2812C176.578 48.9141 177.109 48.625 177.727 48.4141C178.352 48.1953 179.047 48.0859 179.812 48.0859C180.734 48.0859 181.547 48.2422 182.25 48.5547C182.961 48.8672 183.516 49.3398 183.914 49.9727C184.32 50.5977 184.523 51.3828 184.523 52.3281V58.2344C184.523 58.6562 184.559 59.1055 184.629 59.582C184.707 60.0586 184.82 60.4688 184.969 60.8125V61H182.707C182.598 60.75 182.512 60.418 182.449 60.0039C182.387 59.582 182.355 59.1914 182.355 58.832ZM182.73 53.3125L182.754 54.8359H180.562C179.945 54.8359 179.395 54.8867 178.91 54.9883C178.426 55.082 178.02 55.2266 177.691 55.4219C177.363 55.6172 177.113 55.8633 176.941 56.1602C176.77 56.4492 176.684 56.7891 176.684 57.1797C176.684 57.5781 176.773 57.9414 176.953 58.2695C177.133 58.5977 177.402 58.8594 177.762 59.0547C178.129 59.2422 178.578 59.3359 179.109 59.3359C179.773 59.3359 180.359 59.1953 180.867 58.9141C181.375 58.6328 181.777 58.2891 182.074 57.8828C182.379 57.4766 182.543 57.082 182.566 56.6992L183.492 57.7422C183.438 58.0703 183.289 58.4336 183.047 58.832C182.805 59.2305 182.48 59.6133 182.074 59.9805C181.676 60.3398 181.199 60.6406 180.645 60.8828C180.098 61.1172 179.48 61.2344 178.793 61.2344C177.934 61.2344 177.18 61.0664 176.531 60.7305C175.891 60.3945 175.391 59.9453 175.031 59.3828C174.68 58.8125 174.504 58.1758 174.504 57.4727C174.504 56.793 174.637 56.1953 174.902 55.6797C175.168 55.1562 175.551 54.7227 176.051 54.3789C176.551 54.0273 177.152 53.7617 177.855 53.582C178.559 53.4023 179.344 53.3125 180.211 53.3125H182.73ZM193.242 48.3203V49.9844H186.387V48.3203H193.242ZM188.707 45.2383H190.875V57.8594C190.875 58.2891 190.941 58.6133 191.074 58.832C191.207 59.0508 191.379 59.1953 191.59 59.2656C191.801 59.3359 192.027 59.3711 192.27 59.3711C192.449 59.3711 192.637 59.3555 192.832 59.3242C193.035 59.2852 193.188 59.2539 193.289 59.2305L193.301 61C193.129 61.0547 192.902 61.1055 192.621 61.1523C192.348 61.207 192.016 61.2344 191.625 61.2344C191.094 61.2344 190.605 61.1289 190.16 60.918C189.715 60.707 189.359 60.3555 189.094 59.8633C188.836 59.3633 188.707 58.6914 188.707 57.8477V45.2383ZM201.094 48.3203V49.9844H194.238V48.3203H201.094ZM196.559 45.2383H198.727V57.8594C198.727 58.2891 198.793 58.6133 198.926 58.832C199.059 59.0508 199.23 59.1953 199.441 59.2656C199.652 59.3359 199.879 59.3711 200.121 59.3711C200.301 59.3711 200.488 59.3555 200.684 59.3242C200.887 59.2852 201.039 59.2539 201.141 59.2305L201.152 61C200.98 61.0547 200.754 61.1055 200.473 61.1523C200.199 61.207 199.867 61.2344 199.477 61.2344C198.945 61.2344 198.457 61.1289 198.012 60.918C197.566 60.707 197.211 60.3555 196.945 59.8633C196.688 59.3633 196.559 58.6914 196.559 57.8477V45.2383ZM205.992 43V61H203.812V43H205.992ZM214.734 61.2344C213.852 61.2344 213.051 61.0859 212.332 60.7891C211.621 60.4844 211.008 60.0586 210.492 59.5117C209.984 58.9648 209.594 58.3164 209.32 57.5664C209.047 56.8164 208.91 55.9961 208.91 55.1055V54.6133C208.91 53.582 209.062 52.6641 209.367 51.8594C209.672 51.0469 210.086 50.3594 210.609 49.7969C211.133 49.2344 211.727 48.8086 212.391 48.5195C213.055 48.2305 213.742 48.0859 214.453 48.0859C215.359 48.0859 216.141 48.2422 216.797 48.5547C217.461 48.8672 218.004 49.3047 218.426 49.8672C218.848 50.4219 219.16 51.0781 219.363 51.8359C219.566 52.5859 219.668 53.4062 219.668 54.2969V55.2695H210.199V53.5H217.5V53.3359C217.469 52.7734 217.352 52.2266 217.148 51.6953C216.953 51.1641 216.641 50.7266 216.211 50.3828C215.781 50.0391 215.195 49.8672 214.453 49.8672C213.961 49.8672 213.508 49.9727 213.094 50.1836C212.68 50.3867 212.324 50.6914 212.027 51.0977C211.73 51.5039 211.5 52 211.336 52.5859C211.172 53.1719 211.09 53.8477 211.09 54.6133V55.1055C211.09 55.707 211.172 56.2734 211.336 56.8047C211.508 57.3281 211.754 57.7891 212.074 58.1875C212.402 58.5859 212.797 58.8984 213.258 59.125C213.727 59.3516 214.258 59.4648 214.852 59.4648C215.617 59.4648 216.266 59.3086 216.797 58.9961C217.328 58.6836 217.793 58.2656 218.191 57.7422L219.504 58.7852C219.23 59.1992 218.883 59.5938 218.461 59.9688C218.039 60.3438 217.52 60.6484 216.902 60.8828C216.293 61.1172 215.57 61.2344 214.734 61.2344ZM229.582 57.6367C229.582 57.3242 229.512 57.0352 229.371 56.7695C229.238 56.4961 228.961 56.25 228.539 56.0312C228.125 55.8047 227.5 55.6094 226.664 55.4453C225.961 55.2969 225.324 55.1211 224.754 54.918C224.191 54.7148 223.711 54.4688 223.312 54.1797C222.922 53.8906 222.621 53.5508 222.41 53.1602C222.199 52.7695 222.094 52.3125 222.094 51.7891C222.094 51.2891 222.203 50.8164 222.422 50.3711C222.648 49.9258 222.965 49.5312 223.371 49.1875C223.785 48.8438 224.281 48.5742 224.859 48.3789C225.438 48.1836 226.082 48.0859 226.793 48.0859C227.809 48.0859 228.676 48.2656 229.395 48.625C230.113 48.9844 230.664 49.4648 231.047 50.0664C231.43 50.6602 231.621 51.3203 231.621 52.0469H229.453C229.453 51.6953 229.348 51.3555 229.137 51.0273C228.934 50.6914 228.633 50.4141 228.234 50.1953C227.844 49.9766 227.363 49.8672 226.793 49.8672C226.191 49.8672 225.703 49.9609 225.328 50.1484C224.961 50.3281 224.691 50.5586 224.52 50.8398C224.355 51.1211 224.273 51.418 224.273 51.7305C224.273 51.9648 224.312 52.1758 224.391 52.3633C224.477 52.543 224.625 52.7109 224.836 52.8672C225.047 53.0156 225.344 53.1562 225.727 53.2891C226.109 53.4219 226.598 53.5547 227.191 53.6875C228.23 53.9219 229.086 54.2031 229.758 54.5312C230.43 54.8594 230.93 55.2617 231.258 55.7383C231.586 56.2148 231.75 56.793 231.75 57.4727C231.75 58.0273 231.633 58.5352 231.398 58.9961C231.172 59.457 230.84 59.8555 230.402 60.1914C229.973 60.5195 229.457 60.7773 228.855 60.9648C228.262 61.1445 227.594 61.2344 226.852 61.2344C225.734 61.2344 224.789 61.0352 224.016 60.6367C223.242 60.2383 222.656 59.7227 222.258 59.0898C221.859 58.457 221.66 57.7891 221.66 57.0859H223.84C223.871 57.6797 224.043 58.1523 224.355 58.5039C224.668 58.8477 225.051 59.0938 225.504 59.2422C225.957 59.3828 226.406 59.4531 226.852 59.4531C227.445 59.4531 227.941 59.375 228.34 59.2188C228.746 59.0625 229.055 58.8477 229.266 58.5742C229.477 58.3008 229.582 57.9883 229.582 57.6367Z" fill="#888888"/>
<path d="M104.344 84.875V119H96.1406V84.875H104.344ZM117.727 99.0078V119H109.828V93.6406H117.234L117.727 99.0078ZM116.766 105.453L114.961 105.5C114.961 103.719 115.172 102.078 115.594 100.578C116.016 99.0781 116.641 97.7734 117.469 96.6641C118.297 95.5547 119.312 94.6953 120.516 94.0859C121.734 93.4766 123.141 93.1719 124.734 93.1719C125.844 93.1719 126.852 93.3438 127.758 93.6875C128.664 94.0156 129.445 94.5391 130.102 95.2578C130.758 95.9609 131.258 96.8828 131.602 98.0234C131.961 99.1484 132.141 100.5 132.141 102.078V119H124.242V103.086C124.242 102.008 124.117 101.195 123.867 100.648C123.633 100.102 123.289 99.7344 122.836 99.5469C122.383 99.3594 121.828 99.2656 121.172 99.2656C120.484 99.2656 119.867 99.4219 119.32 99.7344C118.773 100.047 118.305 100.484 117.914 101.047C117.539 101.594 117.25 102.242 117.047 102.992C116.859 103.742 116.766 104.562 116.766 105.453ZM131.25 105.453L129.047 105.5C129.047 103.719 129.242 102.078 129.633 100.578C130.039 99.0781 130.641 97.7734 131.438 96.6641C132.25 95.5547 133.258 94.6953 134.461 94.0859C135.664 93.4766 137.062 93.1719 138.656 93.1719C139.812 93.1719 140.875 93.3438 141.844 93.6875C142.812 94.0312 143.648 94.5859 144.352 95.3516C145.055 96.1172 145.602 97.1328 145.992 98.3984C146.383 99.6484 146.578 101.195 146.578 103.039V119H138.656V103.039C138.656 101.992 138.531 101.203 138.281 100.672C138.047 100.125 137.703 99.7578 137.25 99.5703C136.797 99.3672 136.258 99.2656 135.633 99.2656C134.883 99.2656 134.234 99.4219 133.688 99.7344C133.141 100.047 132.68 100.484 132.305 101.047C131.945 101.594 131.68 102.242 131.508 102.992C131.336 103.742 131.25 104.562 131.25 105.453ZM159.07 98.5156V128.75H151.172V93.6406H158.531L159.07 98.5156ZM174.633 106.016V106.508C174.633 108.352 174.422 110.062 174 111.641C173.578 113.219 172.953 114.594 172.125 115.766C171.297 116.938 170.266 117.852 169.031 118.508C167.812 119.148 166.398 119.469 164.789 119.469C163.273 119.469 161.969 119.133 160.875 118.461C159.781 117.789 158.867 116.859 158.133 115.672C157.398 114.484 156.805 113.125 156.352 111.594C155.898 110.062 155.539 108.445 155.273 106.742V106.109C155.539 104.281 155.898 102.586 156.352 101.023C156.805 99.4453 157.398 98.0703 158.133 96.8984C158.867 95.7266 159.773 94.8125 160.852 94.1562C161.945 93.5 163.25 93.1719 164.766 93.1719C166.375 93.1719 167.789 93.4766 169.008 94.0859C170.242 94.6953 171.273 95.5703 172.102 96.7109C172.945 97.8359 173.578 99.1875 174 100.766C174.422 102.344 174.633 104.094 174.633 106.016ZM166.734 106.508V106.016C166.734 105.031 166.664 104.133 166.523 103.32C166.383 102.492 166.156 101.773 165.844 101.164C165.547 100.555 165.148 100.086 164.648 99.7578C164.148 99.4297 163.531 99.2656 162.797 99.2656C161.953 99.2656 161.242 99.3984 160.664 99.6641C160.102 99.9141 159.648 100.305 159.305 100.836C158.977 101.352 158.742 102 158.602 102.781C158.477 103.547 158.422 104.445 158.438 105.477V107.398C158.406 108.586 158.523 109.633 158.789 110.539C159.055 111.43 159.516 112.125 160.172 112.625C160.828 113.125 161.719 113.375 162.844 113.375C163.594 113.375 164.219 113.203 164.719 112.859C165.219 112.5 165.617 112.008 165.914 111.383C166.211 110.742 166.422 110.008 166.547 109.18C166.672 108.352 166.734 107.461 166.734 106.508ZM186.492 83V119H178.57V83H186.492ZM203.648 119.469C201.586 119.469 199.742 119.148 198.117 118.508C196.492 117.852 195.117 116.953 193.992 115.812C192.883 114.672 192.031 113.359 191.438 111.875C190.859 110.391 190.57 108.82 190.57 107.164V106.273C190.57 104.414 190.828 102.695 191.344 101.117C191.859 99.5234 192.625 98.1328 193.641 96.9453C194.656 95.7578 195.93 94.8359 197.461 94.1797C198.992 93.5078 200.773 93.1719 202.805 93.1719C204.602 93.1719 206.211 93.4609 207.633 94.0391C209.055 94.6172 210.258 95.4453 211.242 96.5234C212.242 97.6016 213 98.9062 213.516 100.438C214.047 101.969 214.312 103.688 214.312 105.594V108.805H193.594V103.859H206.602V103.25C206.617 102.406 206.469 101.688 206.156 101.094C205.859 100.5 205.422 100.047 204.844 99.7344C204.266 99.4219 203.562 99.2656 202.734 99.2656C201.875 99.2656 201.164 99.4531 200.602 99.8281C200.055 100.203 199.625 100.719 199.312 101.375C199.016 102.016 198.805 102.758 198.68 103.602C198.555 104.445 198.492 105.336 198.492 106.273V107.164C198.492 108.102 198.617 108.953 198.867 109.719C199.133 110.484 199.508 111.141 199.992 111.688C200.492 112.219 201.086 112.633 201.773 112.93C202.477 113.227 203.273 113.375 204.164 113.375C205.242 113.375 206.305 113.172 207.352 112.766C208.398 112.359 209.297 111.688 210.047 110.75L213.633 115.016C213.117 115.75 212.383 116.461 211.43 117.148C210.492 117.836 209.367 118.398 208.055 118.836C206.742 119.258 205.273 119.469 203.648 119.469ZM225.492 99.0078V119H217.594V93.6406H225L225.492 99.0078ZM224.531 105.453L222.727 105.5C222.727 103.719 222.938 102.078 223.359 100.578C223.781 99.0781 224.406 97.7734 225.234 96.6641C226.062 95.5547 227.078 94.6953 228.281 94.0859C229.5 93.4766 230.906 93.1719 232.5 93.1719C233.609 93.1719 234.617 93.3438 235.523 93.6875C236.43 94.0156 237.211 94.5391 237.867 95.2578C238.523 95.9609 239.023 96.8828 239.367 98.0234C239.727 99.1484 239.906 100.5 239.906 102.078V119H232.008V103.086C232.008 102.008 231.883 101.195 231.633 100.648C231.398 100.102 231.055 99.7344 230.602 99.5469C230.148 99.3594 229.594 99.2656 228.938 99.2656C228.25 99.2656 227.633 99.4219 227.086 99.7344C226.539 100.047 226.07 100.484 225.68 101.047C225.305 101.594 225.016 102.242 224.812 102.992C224.625 103.742 224.531 104.562 224.531 105.453ZM239.016 105.453L236.812 105.5C236.812 103.719 237.008 102.078 237.398 100.578C237.805 99.0781 238.406 97.7734 239.203 96.6641C240.016 95.5547 241.023 94.6953 242.227 94.0859C243.43 93.4766 244.828 93.1719 246.422 93.1719C247.578 93.1719 248.641 93.3438 249.609 93.6875C250.578 94.0312 251.414 94.5859 252.117 95.3516C252.82 96.1172 253.367 97.1328 253.758 98.3984C254.148 99.6484 254.344 101.195 254.344 103.039V119H246.422V103.039C246.422 101.992 246.297 101.203 246.047 100.672C245.812 100.125 245.469 99.7578 245.016 99.5703C244.562 99.3672 244.023 99.2656 243.398 99.2656C242.648 99.2656 242 99.4219 241.453 99.7344C240.906 100.047 240.445 100.484 240.07 101.047C239.711 101.594 239.445 102.242 239.273 102.992C239.102 103.742 239.016 104.562 239.016 105.453ZM271.148 119.469C269.086 119.469 267.242 119.148 265.617 118.508C263.992 117.852 262.617 116.953 261.492 115.812C260.383 114.672 259.531 113.359 258.938 111.875C258.359 110.391 258.07 108.82 258.07 107.164V106.273C258.07 104.414 258.328 102.695 258.844 101.117C259.359 99.5234 260.125 98.1328 261.141 96.9453C262.156 95.7578 263.43 94.8359 264.961 94.1797C266.492 93.5078 268.273 93.1719 270.305 93.1719C272.102 93.1719 273.711 93.4609 275.133 94.0391C276.555 94.6172 277.758 95.4453 278.742 96.5234C279.742 97.6016 280.5 98.9062 281.016 100.438C281.547 101.969 281.812 103.688 281.812 105.594V108.805H261.094V103.859H274.102V103.25C274.117 102.406 273.969 101.688 273.656 101.094C273.359 100.5 272.922 100.047 272.344 99.7344C271.766 99.4219 271.062 99.2656 270.234 99.2656C269.375 99.2656 268.664 99.4531 268.102 99.8281C267.555 100.203 267.125 100.719 266.812 101.375C266.516 102.016 266.305 102.758 266.18 103.602C266.055 104.445 265.992 105.336 265.992 106.273V107.164C265.992 108.102 266.117 108.953 266.367 109.719C266.633 110.484 267.008 111.141 267.492 111.688C267.992 112.219 268.586 112.633 269.273 112.93C269.977 113.227 270.773 113.375 271.664 113.375C272.742 113.375 273.805 113.172 274.852 112.766C275.898 112.359 276.797 111.688 277.547 110.75L281.133 115.016C280.617 115.75 279.883 116.461 278.93 117.148C277.992 117.836 276.867 118.398 275.555 118.836C274.242 119.258 272.773 119.469 271.148 119.469ZM292.781 99.0547V119H284.883V93.6406H292.289L292.781 99.0547ZM291.844 105.453L289.992 105.5C289.992 103.562 290.227 101.836 290.695 100.32C291.164 98.7891 291.828 97.4922 292.688 96.4297C293.547 95.3672 294.57 94.5625 295.758 94.0156C296.961 93.4531 298.297 93.1719 299.766 93.1719C300.938 93.1719 302.008 93.3438 302.977 93.6875C303.961 94.0312 304.805 94.5859 305.508 95.3516C306.227 96.1172 306.773 97.1328 307.148 98.3984C307.539 99.6484 307.734 101.195 307.734 103.039V119H299.789V103.016C299.789 102 299.648 101.227 299.367 100.695C299.086 100.148 298.68 99.7734 298.148 99.5703C297.617 99.3672 296.969 99.2656 296.203 99.2656C295.391 99.2656 294.703 99.4219 294.141 99.7344C293.578 100.047 293.125 100.484 292.781 101.047C292.453 101.594 292.211 102.242 292.055 102.992C291.914 103.742 291.844 104.562 291.844 105.453ZM325.477 93.6406V99.125H310.195V93.6406H325.477ZM313.406 87.3359H321.305V110.727C321.305 111.398 321.383 111.922 321.539 112.297C321.695 112.656 321.961 112.914 322.336 113.07C322.727 113.211 323.242 113.281 323.883 113.281C324.336 113.281 324.711 113.273 325.008 113.258C325.305 113.227 325.586 113.188 325.852 113.141V118.789C325.18 119.008 324.477 119.172 323.742 119.281C323.008 119.406 322.227 119.469 321.398 119.469C319.711 119.469 318.266 119.203 317.062 118.672C315.875 118.141 314.969 117.305 314.344 116.164C313.719 115.023 313.406 113.539 313.406 111.711V87.3359ZM341.789 112.625V102.172C341.789 101.453 341.688 100.836 341.484 100.32C341.281 99.8047 340.961 99.4062 340.523 99.125C340.086 98.8281 339.5 98.6797 338.766 98.6797C338.172 98.6797 337.664 98.7812 337.242 98.9844C336.82 99.1875 336.5 99.4922 336.281 99.8984C336.062 100.305 335.953 100.82 335.953 101.445H328.055C328.055 100.273 328.312 99.1875 328.828 98.1875C329.359 97.1719 330.109 96.2891 331.078 95.5391C332.062 94.7891 333.234 94.2109 334.594 93.8047C335.969 93.3828 337.5 93.1719 339.188 93.1719C341.203 93.1719 343 93.5078 344.578 94.1797C346.172 94.8516 347.43 95.8594 348.352 97.2031C349.273 98.5312 349.734 100.203 349.734 102.219V112.602C349.734 114.258 349.828 115.516 350.016 116.375C350.203 117.219 350.469 117.961 350.812 118.602V119H342.891C342.516 118.219 342.234 117.266 342.047 116.141C341.875 115 341.789 113.828 341.789 112.625ZM342.75 103.508L342.797 107.727H339.305C338.57 107.727 337.945 107.828 337.43 108.031C336.93 108.234 336.523 108.516 336.211 108.875C335.914 109.219 335.695 109.609 335.555 110.047C335.43 110.484 335.367 110.945 335.367 111.43C335.367 111.898 335.477 112.32 335.695 112.695C335.93 113.055 336.242 113.336 336.633 113.539C337.023 113.742 337.461 113.844 337.945 113.844C338.82 113.844 339.562 113.68 340.172 113.352C340.797 113.008 341.273 112.594 341.602 112.109C341.93 111.625 342.094 111.172 342.094 110.75L343.828 113.984C343.516 114.609 343.156 115.242 342.75 115.883C342.359 116.523 341.867 117.117 341.273 117.664C340.695 118.195 339.984 118.633 339.141 118.977C338.297 119.305 337.273 119.469 336.07 119.469C334.508 119.469 333.07 119.148 331.758 118.508C330.461 117.867 329.422 116.977 328.641 115.836C327.859 114.68 327.469 113.352 327.469 111.852C327.469 110.539 327.703 109.367 328.172 108.336C328.656 107.305 329.383 106.43 330.352 105.711C331.32 104.992 332.555 104.445 334.055 104.07C335.555 103.695 337.32 103.508 339.352 103.508H342.75ZM367.477 93.6406V99.125H352.195V93.6406H367.477ZM355.406 87.3359H363.305V110.727C363.305 111.398 363.383 111.922 363.539 112.297C363.695 112.656 363.961 112.914 364.336 113.07C364.727 113.211 365.242 113.281 365.883 113.281C366.336 113.281 366.711 113.273 367.008 113.258C367.305 113.227 367.586 113.188 367.852 113.141V118.789C367.18 119.008 366.477 119.172 365.742 119.281C365.008 119.406 364.227 119.469 363.398 119.469C361.711 119.469 360.266 119.203 359.062 118.672C357.875 118.141 356.969 117.305 356.344 116.164C355.719 115.023 355.406 113.539 355.406 111.711V87.3359ZM378.961 93.6406V119H371.039V93.6406H378.961ZM370.57 87.1016C370.57 85.9766 370.977 85.0547 371.789 84.3359C372.602 83.6172 373.656 83.2578 374.953 83.2578C376.25 83.2578 377.305 83.6172 378.117 84.3359C378.93 85.0547 379.336 85.9766 379.336 87.1016C379.336 88.2266 378.93 89.1484 378.117 89.8672C377.305 90.5859 376.25 90.9453 374.953 90.9453C373.656 90.9453 372.602 90.5859 371.789 89.8672C370.977 89.1484 370.57 88.2266 370.57 87.1016ZM382.852 106.578V106.086C382.852 104.227 383.117 102.516 383.648 100.953C384.18 99.375 384.961 98.0078 385.992 96.8516C387.023 95.6953 388.297 94.7969 389.812 94.1562C391.328 93.5 393.078 93.1719 395.062 93.1719C397.062 93.1719 398.82 93.5 400.336 94.1562C401.867 94.7969 403.148 95.6953 404.18 96.8516C405.211 98.0078 405.992 99.375 406.523 100.953C407.055 102.516 407.32 104.227 407.32 106.086V106.578C407.32 108.422 407.055 110.133 406.523 111.711C405.992 113.273 405.211 114.641 404.18 115.812C403.148 116.969 401.875 117.867 400.359 118.508C398.844 119.148 397.094 119.469 395.109 119.469C393.125 119.469 391.367 119.148 389.836 118.508C388.305 117.867 387.023 116.969 385.992 115.812C384.961 114.641 384.18 113.273 383.648 111.711C383.117 110.133 382.852 108.422 382.852 106.578ZM390.75 106.086V106.578C390.75 107.531 390.82 108.422 390.961 109.25C391.102 110.078 391.336 110.805 391.664 111.43C391.992 112.039 392.438 112.516 393 112.859C393.562 113.203 394.266 113.375 395.109 113.375C395.938 113.375 396.625 113.203 397.172 112.859C397.734 112.516 398.18 112.039 398.508 111.43C398.836 110.805 399.07 110.078 399.211 109.25C399.352 108.422 399.422 107.531 399.422 106.578V106.086C399.422 105.164 399.352 104.297 399.211 103.484C399.07 102.656 398.836 101.93 398.508 101.305C398.18 100.664 397.734 100.164 397.172 99.8047C396.609 99.4453 395.906 99.2656 395.062 99.2656C394.234 99.2656 393.539 99.4453 392.977 99.8047C392.43 100.164 391.992 100.664 391.664 101.305C391.336 101.93 391.102 102.656 390.961 103.484C390.82 104.297 390.75 105.164 390.75 106.086ZM418.594 99.0547V119H410.695V93.6406H418.102L418.594 99.0547ZM417.656 105.453L415.805 105.5C415.805 103.562 416.039 101.836 416.508 100.32C416.977 98.7891 417.641 97.4922 418.5 96.4297C419.359 95.3672 420.383 94.5625 421.57 94.0156C422.773 93.4531 424.109 93.1719 425.578 93.1719C426.75 93.1719 427.82 93.3438 428.789 93.6875C429.773 94.0312 430.617 94.5859 431.32 95.3516C432.039 96.1172 432.586 97.1328 432.961 98.3984C433.352 99.6484 433.547 101.195 433.547 103.039V119H425.602V103.016C425.602 102 425.461 101.227 425.18 100.695C424.898 100.148 424.492 99.7734 423.961 99.5703C423.43 99.3672 422.781 99.2656 422.016 99.2656C421.203 99.2656 420.516 99.4219 419.953 99.7344C419.391 100.047 418.938 100.484 418.594 101.047C418.266 101.594 418.023 102.242 417.867 102.992C417.727 103.742 417.656 104.562 417.656 105.453Z" fill="black"/>
<path d="M1134 0H1348C1356.28 0 1363 6.71573 1363 15V148C1363 156.284 1356.28 163 1348 163H1134V0Z" fill="#03FA6E"/>
<path d="M1281 46.5H1216L1213.5 49V114L1216 116.5H1281L1283.5 114V49L1281 46.5ZM1278.5 111.5H1233.5V101.5H1245C1246.5 104.5 1250 106.5 1253.5 106.5C1259 106.5 1263.5 102 1263.5 96.5C1263.5 91 1259 86.5 1253.5 86.5C1248 86.5 1243.5 91 1243.5 96.5H1228.5V111.5H1218.5V51.5H1228.5V63C1225.5 64.5 1223.5 68 1223.5 71.5C1223.5 77 1228 81.5 1233.5 81.5C1239 81.5 1243.5 77 1243.5 71.5H1253.5C1253.5 77 1258 81.5 1263.5 81.5C1269 81.5 1273.5 77 1273.5 71.5C1273.5 66 1269 61.5 1263.5 61.5C1260 61.5 1256.5 63.5 1255 66.5H1242C1240.5 63.5 1237 61.5 1233.5 61.5V51.5H1278.5V111.5ZM1248.5 96.5C1248.5 93.5 1250.5 91.5 1253.5 91.5C1256.5 91.5 1258.5 93.5 1258.5 96.5C1258.5 99.5 1256.5 101.5 1253.5 101.5C1250.5 101.5 1248.5 99.5 1248.5 96.5ZM1233.5 66.5C1236.5 66.5 1238.5 68.5 1238.5 71.5C1238.5 74.5 1236.5 76.5 1233.5 76.5C1230.5 76.5 1228.5 74.5 1228.5 71.5C1228.5 68.5 1230.5 66.5 1233.5 66.5ZM1263.5 66.5C1266.5 66.5 1268.5 68.5 1268.5 71.5C1268.5 74.5 1266.5 76.5 1263.5 76.5C1260.5 76.5 1258.5 74.5 1258.5 71.5C1258.5 68.5 1260.5 66.5 1263.5 66.5Z" fill="white"/>
</svg>
